<?xml version="1.0" encoding="utf-8"?>
<!-- Generator: Adobe Illustrator 17.0.0, SVG Export Plug-In . SVG Version: 6.00 Build 0)  -->
<!DOCTYPE svg PUBLIC "-//W3C//DTD SVG 1.1//EN" "http://www.w3.org/Graphi/Public/Home/svg/1.1/DTD/svg11.dtd">
<svg version="1.1" id="图层_1" xmlns="http://www.w3.org/2000/svg" xmlns:xlink="http://www.w3.org/1999/xlink" x="0px" y="0px"
	 width="66.348px" height="66.348px" viewBox="0 0 66.348 66.348" enable-background="new 0 0 66.348 66.348" xml:space="preserve">
<g>
	<path fill="#808080" d="M65.845,0.503c0.67,0.67,0.67,1.757,0,2.427L2.929,65.845c-0.67,0.67-1.757,0.67-2.427,0l0,0
		c-0.67-0.67-0.67-1.757,0-2.427L63.419,0.503C64.089-0.168,65.175-0.168,65.845,0.503L65.845,0.503z"/>
	<path fill="#808080" d="M65.845,65.845c-0.67,0.67-1.757,0.67-2.427,0L0.503,2.929c-0.67-0.67-0.67-1.757,0-2.427l0,0
		c0.67-0.67,1.757-0.67,2.427,0l62.916,62.916C66.516,64.089,66.516,65.175,65.845,65.845L65.845,65.845z"/>
</g>
</svg>
