<?xml version="1.0" encoding="utf-8"?>
<!-- Generator: Adobe Illustrator 17.0.0, SVG Export Plug-In . SVG Version: 6.00 Build 0)  -->
<!DOCTYPE svg PUBLIC "-//W3C//DTD SVG 1.1//EN" "http://www.w3.org/Graphi/Public/Home/svg/1.1/DTD/svg11.dtd">
<svg version="1.1" id="图层_1" xmlns="http://www.w3.org/2000/svg" xmlns:xlink="http://www.w3.org/1999/xlink" x="0px" y="0px"
	 width="73.784px" height="62.331px" viewBox="0 0 73.784 62.331" enable-background="new 0 0 73.784 62.331" xml:space="preserve">
<g>
	<path fill="#666666" d="M17.024,15.773c-3.132,0-5.684,2.548-5.684,5.682c0,3.132,2.552,5.68,5.684,5.68s5.684-2.548,5.684-5.68
		C22.708,18.321,20.156,15.773,17.024,15.773z"/>
	<path fill="#666666" d="M69.453,0L5.715,0.033c0,0-5.715-0.735-5.715,4.701s0,37.008,0,37.008s4.199,4.879,8.105,6.348
		c3.906,1.469,9.833,2.245,16.385-4.09c6.552-6.335,17.763-14.211,22.867-15.033c4.744-1.237,8.612-1.847,17.173,2.201
		c0,0,5.227,3.132,9.254,7.228V4.735C73.784,4.735,73.721-0.033,69.453,0z M17.024,31.165c-5.356,0-9.711-4.357-9.711-9.711
		c0-5.356,4.355-9.712,9.711-9.712s9.711,4.357,9.711,9.712C26.735,26.809,22.38,31.165,17.024,31.165z"/>
	<path fill="#666666" d="M60.535,33.703c-6.48-2.939-11.333-1.156-15.016,0.209c-3.778,1.4-9.706,5.254-12.409,8.085
		c-3.332,2.76-1.269,0.97-6.918,5.888c0,0-7.328,7.297-16.835,4.882c0,0-5.956-1.647-9.351-5.169v10.344
		c0,0-0.173,4.388,5.424,4.388c5.597,0,64.157,0,64.157,0s3.905-0.505,4.191-4.701V44.611
		C73.779,44.611,68.258,37.062,60.535,33.703z"/>
</g>
</svg>
