<?xml version="1.0" encoding="utf-8"?>
<!-- Generator: Adobe Illustrator 17.0.0, SVG Export Plug-In . SVG Version: 6.00 Build 0)  -->
<!DOCTYPE svg PUBLIC "-//W3C//DTD SVG 1.1//EN" "http://www.w3.org/Graphi/Public/Home/svg/1.1/DTD/svg11.dtd">
<svg version="1.1" id="图层_1" xmlns="http://www.w3.org/2000/svg" xmlns:xlink="http://www.w3.org/1999/xlink" x="0px" y="0px"
	 width="72.621px" height="62.412px" viewBox="0 0 72.621 62.412" enable-background="new 0 0 72.621 62.412" xml:space="preserve">
<g>
	<g>
		<g>
			<path fill="#4d4d4d" d="M18.681,31.206c-4.752,0-8.617-3.866-8.617-8.617c0-4.752,3.865-8.619,8.617-8.619
				s8.617,3.866,8.617,8.619C27.298,27.34,23.433,31.206,18.681,31.206z M18.681,17.547c-2.779,0-5.043,2.261-5.043,5.042
				c0,2.779,2.264,5.04,5.043,5.04s5.043-2.261,5.043-5.04C23.724,19.808,21.46,17.547,18.681,17.547z"/>
		</g>
	</g>
	<path fill="#4d4d4d" d="M66.661,0H5.96C2.668,0,0,2.668,0,5.96v50.492c0,3.292,2.668,5.96,5.96,5.96h60.701
		c3.292,0,5.96-2.668,5.96-5.96V5.96C72.621,2.668,69.953,0,66.661,0z M69.042,54.689c-0.254,3.724-3.719,4.172-3.719,4.172
		s-51.964,0-56.931,0c-4.967,0-4.813-3.894-4.813-3.894v-9.179c3.013,3.125,8.298,4.587,8.298,4.587
		c8.436,2.143,14.939-4.332,14.939-4.332c5.013-4.364,3.182-2.775,6.139-5.225c2.398-2.512,7.659-5.932,11.011-7.174
		c3.268-1.211,7.575-2.793,13.325-0.186c6.853,2.98,11.752,9.679,11.752,9.679V54.689z M69.047,37.624
		c-3.574-3.635-8.212-6.414-8.212-6.414c-7.597-3.592-11.029-3.051-15.239-1.953c-4.528,0.73-14.477,7.719-20.291,13.34
		c-5.814,5.622-11.073,4.933-14.54,3.629c-3.466-1.304-7.193-5.633-7.193-5.633s0-28.016,0-32.84S8.645,3.58,8.645,3.58
		l56.559-0.029c3.787-0.029,3.843,4.201,3.843,4.201V37.624z"/>
</g>
</svg>
