<?xml version="1.0" encoding="utf-8"?>
<!-- Generator: Adobe Illustrator 17.0.0, SVG Export Plug-In . SVG Version: 6.00 Build 0)  -->
<!DOCTYPE svg PUBLIC "-//W3C//DTD SVG 1.1//EN" "http://www.w3.org/Graphi/Public/Home/svg/1.1/DTD/svg11.dtd">
<svg version="1.1" id="图层_1" xmlns="http://www.w3.org/2000/svg" xmlns:xlink="http://www.w3.org/1999/xlink" x="0px" y="0px"
	 width="63.75px" height="63.75px" viewBox="0 0 63.75 63.75" enable-background="new 0 0 63.75 63.75" xml:space="preserve">
<g>
	<g>
		<defs>
			<circle id="SVGID_1_" cx="31.875" cy="31.875" r="30.357"/>
		</defs>
		<clipPath id="SVGID_2_">
			<use xlink:href="#SVGID_1_"  overflow="visible"/>
		</clipPath>
		<g clip-path="url(#SVGID_2_)">
			<rect x="-13.661" y="-13.661" fill="#FFFFFF" width="91.072" height="91.072"/>
		</g>
	</g>
	<g>
		<path fill="#666666" d="M31.875,63.75C14.298,63.75,0,49.45,0,31.875S14.298,0,31.875,0S63.75,14.3,63.75,31.875
			S49.452,63.75,31.875,63.75z M31.875,3.036c-15.902,0-28.839,12.937-28.839,28.839s12.937,28.839,28.839,28.839
			s28.839-12.937,28.839-28.839S47.777,3.036,31.875,3.036z"/>
	</g>
	<g>
		<defs>
			<path id="SVGID_3_" d="M19.732,24.286c0-0.838,0.701-1.518,1.519-1.518h21.247c0.839,0,1.519,0.704,1.519,1.518
				c0,0.838-0.701,1.518-1.519,1.518H21.251C20.412,25.804,19.732,25.1,19.732,24.286z"/>
		</defs>
		<clipPath id="SVGID_4_">
			<use xlink:href="#SVGID_3_"  overflow="visible"/>
		</clipPath>
		<g clip-path="url(#SVGID_4_)">
			<path fill-rule="evenodd" clip-rule="evenodd" fill="#D8D8D8" d="M19.732,24.286c0-0.838,0.701-1.518,1.519-1.518h21.247
				c0.839,0,1.519,0.704,1.519,1.518c0,0.838-0.701,1.518-1.519,1.518H21.251C20.412,25.804,19.732,25.1,19.732,24.286z"/>
		</g>
	</g>
	<g>
		<defs>
			<path id="SVGID_5_" d="M19.732,24.286c0-0.838,0.701-1.518,1.519-1.518h21.247c0.839,0,1.519,0.704,1.519,1.518
				c0,0.838-0.701,1.518-1.519,1.518H21.251C20.412,25.804,19.732,25.1,19.732,24.286z"/>
		</defs>
		<use xlink:href="#SVGID_5_"  overflow="visible" fill-rule="evenodd" clip-rule="evenodd" fill="#666666"/>
		<clipPath id="SVGID_6_">
			<use xlink:href="#SVGID_5_"  overflow="visible"/>
		</clipPath>
		<g clip-path="url(#SVGID_6_)">
			<path fill="#666666" d="M42.497,28.839H21.25c-2.511,0-4.554-2.043-4.554-4.554s2.043-4.554,4.554-4.554h21.247
				c2.511,0,4.557,2.043,4.557,4.554S45.008,28.839,42.497,28.839z"/>
		</g>
	</g>
	<g>
		<defs>
			<path id="SVGID_7_" d="M19.732,42.5c0-0.838,0.701-1.518,1.519-1.518h21.247c0.839,0,1.519,0.704,1.519,1.518
				c0,0.838-0.701,1.518-1.519,1.518H21.251C20.412,44.018,19.732,43.314,19.732,42.5z"/>
		</defs>
		<clipPath id="SVGID_8_">
			<use xlink:href="#SVGID_7_"  overflow="visible"/>
		</clipPath>
		<g clip-path="url(#SVGID_8_)">
			<path fill-rule="evenodd" clip-rule="evenodd" fill="#D8D8D8" d="M19.732,42.5c0-0.838,0.701-1.518,1.519-1.518h21.247
				c0.839,0,1.519,0.704,1.519,1.518c0,0.838-0.701,1.518-1.519,1.518H21.251C20.412,44.018,19.732,43.314,19.732,42.5z"/>
		</g>
	</g>
	<g>
		<defs>
			<path id="SVGID_9_" d="M19.732,42.5c0-0.838,0.701-1.518,1.519-1.518h21.247c0.839,0,1.519,0.704,1.519,1.518
				c0,0.838-0.701,1.518-1.519,1.518H21.251C20.412,44.018,19.732,43.314,19.732,42.5z"/>
		</defs>
		<use xlink:href="#SVGID_9_"  overflow="visible" fill-rule="evenodd" clip-rule="evenodd" fill="#666666"/>
		<clipPath id="SVGID_10_">
			<use xlink:href="#SVGID_9_"  overflow="visible"/>
		</clipPath>
		<g clip-path="url(#SVGID_10_)">
			<path fill="#666666" d="M42.497,47.054H21.25c-2.511,0-4.554-2.043-4.554-4.554s2.043-4.554,4.554-4.554h21.247
				c2.511,0,4.557,2.043,4.557,4.554S45.008,47.054,42.497,47.054z"/>
		</g>
	</g>
	<g>
		<defs>
			<path id="SVGID_11_" d="M19.732,33.393c0-0.838,0.701-1.518,1.519-1.518h21.247c0.839,0,1.519,0.704,1.519,1.518
				c0,0.838-0.701,1.518-1.519,1.518H21.251C20.412,34.911,19.732,34.207,19.732,33.393z"/>
		</defs>
		<clipPath id="SVGID_12_">
			<use xlink:href="#SVGID_11_"  overflow="visible"/>
		</clipPath>
		<g clip-path="url(#SVGID_12_)">
			<path fill-rule="evenodd" clip-rule="evenodd" fill="#D8D8D8" d="M19.732,33.393c0-0.838,0.701-1.518,1.519-1.518h21.247
				c0.839,0,1.519,0.704,1.519,1.518c0,0.838-0.701,1.518-1.519,1.518H21.251C20.412,34.911,19.732,34.207,19.732,33.393z"/>
		</g>
	</g>
	<g>
		<defs>
			<path id="SVGID_13_" d="M19.732,33.393c0-0.838,0.701-1.518,1.519-1.518h21.247c0.839,0,1.519,0.704,1.519,1.518
				c0,0.838-0.701,1.518-1.519,1.518H21.251C20.412,34.911,19.732,34.207,19.732,33.393z"/>
		</defs>
		<use xlink:href="#SVGID_13_"  overflow="visible" fill-rule="evenodd" clip-rule="evenodd" fill="#666666"/>
		<clipPath id="SVGID_14_">
			<use xlink:href="#SVGID_13_"  overflow="visible"/>
		</clipPath>
		<g clip-path="url(#SVGID_14_)">
			<path fill="#666666" d="M42.497,37.946H21.25c-2.511,0-4.554-2.043-4.554-4.554c0-2.511,2.043-4.554,4.554-4.554h21.247
				c2.511,0,4.557,2.043,4.557,4.554C47.054,35.904,45.008,37.946,42.497,37.946z"/>
		</g>
	</g>
</g>
</svg>
