<?xml version="1.0" encoding="utf-8"?>
<!-- Generator: Adobe Illustrator 17.0.0, SVG Export Plug-In . SVG Version: 6.00 Build 0)  -->
<!DOCTYPE svg PUBLIC "-//W3C//DTD SVG 1.1//EN" "http://www.w3.org/Graphi/Public/Home/svg/1.1/DTD/svg11.dtd">
<svg version="1.1" id="图层_1" xmlns="http://www.w3.org/2000/svg" xmlns:xlink="http://www.w3.org/1999/xlink" x="0px" y="0px"
	 width="64.707px" height="64.56px" viewBox="0 0 64.707 64.56" enable-background="new 0 0 64.707 64.56" xml:space="preserve">
<path fill="#9B9B9B" d="M30.351,2.148c0,0-0.089-2.148,2.076-2.148c2.165,0,2.031,1.89,2.031,1.896c0,0,0.015,27.02,0.002,27.498
	c0.061,0.343,0.346,0.865,0.904,0.799c0.831-0.099,27.365,0.045,27.365,0.045s1.979,0.087,1.979,1.88
	c0,1.793-1.239,2.149-1.712,2.149c-0.473,0-27.885,0.09-27.885,0.09s-0.607-0.047-0.607,0.511c0,0.558,0,27.498,0,27.498
	s-0.057,2.195-2.076,2.195s-2.076-2.116-2.076-2.156s0.001-27.458,0.001-27.458s-0.063-0.591-0.621-0.591s-27.421,0-27.421,0
	S0,34.236,0,32.28s2.141-2.076,2.192-2.076s27.339,0,27.339,0s0.82-0.239,0.82-0.917S30.351,2.148,30.351,2.148z"/>
</svg>
