<?xml version="1.0" encoding="utf-8"?>
<!-- Generator: Adobe Illustrator 17.0.0, SVG Export Plug-In . SVG Version: 6.00 Build 0)  -->
<!DOCTYPE svg PUBLIC "-//W3C//DTD SVG 1.1//EN" "http://www.w3.org/Graphi/Public/Home/svg/1.1/DTD/svg11.dtd">
<svg version="1.1" id="图层_1" xmlns="http://www.w3.org/2000/svg" xmlns:xlink="http://www.w3.org/1999/xlink" x="0px" y="0px"
	 width="65.414px" height="65.414px" viewBox="0 0 65.414 65.414" enable-background="new 0 0 65.414 65.414" xml:space="preserve">
<path fill-rule="evenodd" clip-rule="evenodd" fill="#9B9B9B" d="M30.284,2.146c0,0,0.121-2.146,2.423-2.146
	s2.423,1.843,2.423,1.843v27.498c0,0,0.242,0.943,0.969,0.943s27.459,0,27.459,0s1.857,0.519,1.857,2.423
	c0,1.904-1.559,2.254-1.54,2.254c0.019,0-27.775,0-27.775,0s-0.969,0.256-0.969,1.104c0,0.848,0,26.927,0,26.927
	s-0.121,2.423-2.423,2.423s-2.423-2.423-2.423-2.423V36.125c0,0,0.061-0.995-1.151-0.995s-26.96-0.025-26.96-0.025
	S0,34.983,0,32.707s2.423-2.423,2.423-2.423h26.771c0,0,1.09-0.519,1.09-1.125S30.284,2.146,30.284,2.146z"/>
</svg>
