<?xml version="1.0" encoding="utf-8"?>
<!-- Generator: Adobe Illustrator 17.0.0, SVG Export Plug-In . SVG Version: 6.00 Build 0)  -->
<!DOCTYPE svg PUBLIC "-//W3C//DTD SVG 1.1//EN" "http://www.w3.org/Graphi/Public/Home/svg/1.1/DTD/svg11.dtd">
<svg version="1.1" id="图层_1" xmlns="http://www.w3.org/2000/svg" xmlns:xlink="http://www.w3.org/1999/xlink" x="0px" y="0px"
	 width="70.684px" height="65.513px" viewBox="0 0 70.684 65.513" enable-background="new 0 0 70.684 65.513" xml:space="preserve">
<g>
	<g>
		<g>
			<path fill="#FFFFFF" d="M35.278,37.051L35.278,37.051c-2.741,0-4.763-0.784-4.846-0.817C30.131,36.1,8.579,26.254,3.2,23.696
				c-2.139-1.018-3.215-2.309-3.198-3.838c0.022-2.342,2.694-3.668,3.229-3.911L30.608,1.246C32.15,0.42,33.742,0,35.337,0
				c2.733,0,4.509,1.228,4.701,1.369c0.597,0.277,20.107,10.151,26.264,13.704c2.808,1.619,4.425,2.896,4.381,4.629
				c-0.045,1.673-1.581,2.455-2.936,3.145c-0.446,0.226-0.929,0.471-1.405,0.763c-3.516,2.155-21.34,10.454-25.737,12.364
				C38.959,36.689,37.166,37.051,35.278,37.051z M31.768,33.08c0.011,0,1.509,0.544,3.511,0.544c1.417,0,2.749-0.266,3.96-0.793
				c4.852-2.107,22.137-10.196,25.313-12.144c0.555-0.34,1.121-0.63,1.64-0.895c0.19-0.096,0.407-0.206,0.611-0.315
				c-0.393-0.311-1.065-0.775-2.211-1.437C58.514,14.535,38.463,4.388,38.262,4.284c-0.226-0.135-1.299-0.859-2.925-0.859
				c-1.023,0-2.069,0.283-3.106,0.841L4.748,19.018c-0.555,0.258-1.099,0.651-1.285,0.898c0.114,0.029,0.429,0.314,1.21,0.686
				C10.012,23.143,31.428,32.926,31.768,33.08L31.768,33.08z"/>
		</g>
	</g>
	<g>
		<g>
			<path fill="#FFFFFF" d="M36.165,51.511c-3.19,0-5.457-1.262-5.596-1.343L0.992,36.436c-0.859-0.397-1.23-1.417-0.831-2.275
				c0.399-0.86,1.419-1.231,2.275-0.831l29.702,13.797c0.268,0.144,3.84,2.068,7.905,0.022c4.86-2.437,25.195-12.384,26.064-12.92
				c0.869-0.536,2.035-0.283,2.435,0.528c0.4,0.81,0.311,1.895-0.792,2.442c-1.103,0.548-21.314,10.577-26.171,13.011
				C39.645,51.184,37.785,51.511,36.165,51.511z"/>
		</g>
	</g>
	<g>
		<g>
			<path fill="#FFFFFF" d="M35.836,65.513c-2.674,0-4.397-0.937-4.512-1L0.981,50.112c-0.856-0.406-1.221-1.428-0.814-2.282
				c0.407-0.857,1.436-1.217,2.281-0.813l30.447,14.452c0.209,0.105,3.095,1.58,7.15-0.449c4.857-2.437,26.696-13.422,27.521-13.843
				c0.825-0.421,1.913-0.054,2.27,0.57c0.357,0.625,0.468,1.864-0.468,2.355c-1.301,0.655-22.926,11.543-27.784,13.98
				C39.416,65.17,37.453,65.513,35.836,65.513z"/>
		</g>
	</g>
</g>
</svg>
