<?xml version="1.0" encoding="utf-8"?>
<!-- Generator: Adobe Illustrator 17.0.0, SVG Export Plug-In . SVG Version: 6.00 Build 0)  -->
<!DOCTYPE svg PUBLIC "-//W3C//DTD SVG 1.1//EN" "http://www.w3.org/Graphi/Public/Home/svg/1.1/DTD/svg11.dtd">
<svg version="1.1" id="图层_1" xmlns="http://www.w3.org/2000/svg" xmlns:xlink="http://www.w3.org/1999/xlink" x="0px" y="0px"
	 width="55.06px" height="62.939px" viewBox="0 0 55.06 62.939" enable-background="new 0 0 55.06 62.939" xml:space="preserve">
<g>
	<path fill="#4D4D4D" d="M53.351,13.881c-2.023-2.023-9.84-11.283-9.84-11.283c-2.188-3.044-4.621-2.571-4.621-2.571H17.443
		c0,0-7.476-0.027-7.561,7.165c0,0,0.125,0.718-0.782,0.725S0,7.806,0,14.93s0,40.456,0,40.456s0,7.554,7.487,7.554
		c7.202,0,30.381,0,30.381,0s7.315-0.399,7.315-7.321c0,0-0.114-0.511,0.91-0.519c1.024-0.009,8.947,0.444,8.947-7.427
		s0-29.082,0-29.082S55.374,15.904,53.351,13.881z M40.618,6.39c0-1.81,1.181-1.023,1.181-1.023s6.848,8.028,8.107,9.287
		s-0.394,1.81-0.394,1.81h-4.644c-3.542,0-4.25-4.093-4.25-4.093V6.39z M41.719,56.609c0,3.478-3.969,2.946-3.969,2.946
		s-24.812,0-29.497,0c-4.032,0-4.74-4.131-4.74-4.131s0-36.133,0-39.961s3.814-4.126,3.814-4.126
		c2.46-0.271,2.334,1.628,2.334,1.628s0,26.992,0,34.909s7.886,7.748,7.886,7.748s21.414,0,22.869,0
		C41.87,55.623,41.719,56.609,41.719,56.609z M51.886,20.888c0,0,0,24.142,0,27.517c0,3.375-3.659,3.768-3.659,3.768
		s-25.801,0-30.745,0S12.95,48.01,12.95,48.01s-0.008-36.35,0-40.848c0.007-3.868,4.251-4.206,4.251-4.206l18.737-0.001
		c2.06,0.111,1.573,1.207,1.573,1.207s0.048,0.494,0.048,7.645s8.111,7.557,8.111,7.557s3.864,0,5.263,0
		C52.332,19.363,51.886,20.888,51.886,20.888z"/>
	<path fill="#4D4D4D" d="M43.339,31.654c0,0.884-0.716,1.6-1.6,1.6H24.108c-0.884,0-1.6-0.716-1.6-1.6l0,0
		c0-0.884,0.716-1.6,1.6-1.6h17.631C42.622,30.054,43.339,30.77,43.339,31.654L43.339,31.654z"/>
	<path fill="#4D4D4D" d="M43.339,39.241c0,0.884-0.716,1.6-1.6,1.6H24.108c-0.884,0-1.6-0.716-1.6-1.6l0,0
		c0-0.884,0.716-1.6,1.6-1.6h17.631C42.622,37.641,43.339,38.358,43.339,39.241L43.339,39.241z"/>
</g>
</svg>
