<?xml version="1.0" encoding="utf-8"?>
<!-- Generator: Adobe Illustrator 17.0.0, SVG Export Plug-In . SVG Version: 6.00 Build 0)  -->
<!DOCTYPE svg PUBLIC "-//W3C//DTD SVG 1.1//EN" "http://www.w3.org/Graphi/Public/Home/svg/1.1/DTD/svg11.dtd">
<svg version="1.1" id="图层_1" xmlns="http://www.w3.org/2000/svg" xmlns:xlink="http://www.w3.org/1999/xlink" x="0px" y="0px"
	 width="48.729px" height="62.209px" viewBox="0 0 48.729 62.209" enable-background="new 0 0 48.729 62.209" xml:space="preserve">
<g>
	<path fill="#FFFFFF" d="M48.729,1.943c0,1.073-1.072,1.943-2.394,1.943H2.394C1.072,3.887,0,3.017,0,1.943l0,0
		C0,0.87,1.072,0,2.394,0h43.941C47.657,0,48.729,0.87,48.729,1.943L48.729,1.943z"/>
	<path fill="#FFFFFF" d="M48.726,8.992c0.078-1.568-1.49-1.647-1.49-1.647s-43.365,0-45.483,0S0.029,8.992,0.029,8.992L0,53.318
		c1.734,8.842,8.707,8.73,9.831,8.842c1.124,0.112,30.27,0,30.27,0c8.626-1.568,8.629-9.489,8.629-9.489S48.648,10.561,48.726,8.992
		z M14.952,12.367v45.956c0,0-3.749,0-5.655,0c-4.044,0-5.387-5.331-5.387-5.331s0.063-37.512,0-39.608
		c-0.063-2.096,2.032-2.16,2.032-2.16s7.242,0,8.259,0C15.217,11.223,14.952,12.367,14.952,12.367z M29.881,58.323H18.839
		c0,0,0-44.685,0-45.956c0-1.27,1.651-1.143,1.651-1.143s7.178-0.004,8.322-0.004c1.143,0,1.069,1.401,1.069,1.401V58.323z
		 M44.81,53.247c0,3.24-4.605,5.076-4.605,5.076h-6.437c0,0,0-44.367,0-45.765c0-1.398,1.651-1.334,1.651-1.334
		s7.115,0.064,8.258,0.064c1.143,0,1.133,1.334,1.133,1.334S44.81,50.007,44.81,53.247z"/>
</g>
</svg>
