<?xml version="1.0" encoding="utf-8"?>
<!-- Generator: Adobe Illustrator 17.0.0, SVG Export Plug-In . SVG Version: 6.00 Build 0)  -->
<!DOCTYPE svg PUBLIC "-//W3C//DTD SVG 1.1//EN" "http://www.w3.org/Graphics/SVG/1.1/DTD/svg11.dtd">
<svg version="1.1" id="图层_1" xmlns="http://www.w3.org/2000/svg" xmlns:xlink="http://www.w3.org/1999/xlink" x="0px" y="0px"
	 width="44.25px" height="44.25px" viewBox="0 0 44.25 44.25" enable-background="new 0 0 44.25 44.25" xml:space="preserve">
<rect x="0.125" y="0.125" fill="none" stroke="#4D4D4D" stroke-width="0.25" stroke-miterlimit="10" width="44" height="44"/>
<path fill="#333333" d="M22.125,8.27c-6.763,0-12.246,5.164-12.246,11.533c0,0.14,0.006,0.279,0.011,0.418H9.879v23.903h24.492
	V20.222H34.36c0.005-0.139,0.011-0.278,0.011-0.418C34.371,13.434,28.888,8.27,22.125,8.27z"/>
<circle fill="none" cx="17.46" cy="21.412" r="2.965"/>
<path fill="#FFFFFF" d="M17.46,25.387c-2.191,0-3.974-1.783-3.974-3.974s1.783-3.974,3.974-3.974s3.974,1.783,3.974,3.974
	S19.652,25.387,17.46,25.387z M17.46,20.376c-0.571,0-1.036,0.465-1.036,1.036c0,0.571,0.465,1.036,1.036,1.036
	c0.571,0,1.036-0.465,1.036-1.036C18.496,20.841,18.032,20.376,17.46,20.376z"/>
<circle fill="none" cx="26.79" cy="21.412" r="2.463"/>
<path fill="#FFFFFF" d="M26.79,25.321c-2.155,0-3.908-1.753-3.908-3.909s1.753-3.909,3.908-3.909s3.908,1.753,3.908,3.909
	S28.945,25.321,26.79,25.321z M26.79,20.394c-0.562,0-1.018,0.457-1.018,1.019s0.457,1.019,1.018,1.019s1.018-0.457,1.018-1.019
	S27.351,20.394,26.79,20.394z"/>
<path fill="none" d="M27.369,34.92c0,0.613-0.497,1.11-1.11,1.11h-8.266c-0.613,0-1.11-0.497-1.11-1.11v-2.097
	c0-0.613,0.497-1.11,1.11-1.11h8.266c0.613,0,1.11,0.497,1.11,1.11V34.92z"/>
<path fill="#FFFFFF" d="M26.258,37.66h-8.267c-1.511,0-2.74-1.229-2.74-2.74v-2.098c0-1.51,1.229-2.74,2.74-2.74h8.267
	c1.511,0,2.74,1.229,2.74,2.74v2.098C28.999,36.431,27.77,37.66,26.258,37.66z M18.511,34.4h7.228v-1.058h-7.228V34.4z"/>
</svg>
