<?xml version="1.0" encoding="utf-8"?>
<!-- Generator: Adobe Illustrator 17.0.0, SVG Export Plug-In . SVG Version: 6.00 Build 0)  -->
<!DOCTYPE svg PUBLIC "-//W3C//DTD SVG 1.1//EN" "http://www.w3.org/Graphi/Public/Home/svg/1.1/DTD/svg11.dtd">
<svg version="1.1" id="图层_1" xmlns="http://www.w3.org/2000/svg" xmlns:xlink="http://www.w3.org/1999/xlink" x="0px" y="0px"
	 width="68.246px" height="62.378px" viewBox="0 0 68.246 62.378" enable-background="new 0 0 68.246 62.378" xml:space="preserve">
<g>
	<g>
		<path fill="#4D4D4D" d="M54.727,62.378h-8.456c-2.079,0-3.566-0.572-4.426-1.7c-0.683-0.895-0.788-1.958-0.66-2.707V41.162
			c0-1.783-0.624-2.578-2.018-2.578c-0.15,0-0.255,0.011-0.291,0.017l-8.919,0.021c-2.342,0-2.648,1.232-2.673,1.761v17.4
			c0,3.372-2.267,4.596-3.794,4.596h-7.263c-4.884,0-7.607-3.378-7.612-5.21c-0.005-1.832-0.061-20.975-0.061-20.975
			c0-0.683-0.142-1.116-0.422-1.288c-0.558-0.007-1.468-0.029-3.003-0.079c-2.412-0.078-3.994-0.792-4.704-2.123l-0.244-0.545
			l-0.114-0.602C-0.307,29.627,1,28.385,1.152,28.189L27.089,3.522C29.182,1.214,31.638,0,34.305,0c4.107,0,7.088,2.983,7.213,3.11
			c0.821,0.773,21.286,20.049,24.799,23.785c1.524,1.622,2.253,3.476,1.792,4.952c-0.568,1.821-2.361,2.648-3.596,2.745
			c-1.235,0.097-4.121-0.302-4.765,0.332l-0.033,21.823C59.714,60.878,56.734,62.378,54.727,62.378z M39.167,35.174
			c2.623,0,5.426,1.572,5.426,5.987c0,0-0.069,15.082-0.061,16.35c0.008,1.268,0.35,1.456,1.74,1.456h7.993
			c0.602-0.026,2.043-0.354,2.043-2.222V34.958c-0.011-0.146-0.017-1.346,0.971-2.385c0.844-0.887,2.092-1.336,3.716-1.336h2.822
			c0.405-0.151,1.623-0.396,0.014-2.005C60.277,25.678,39.345,5.747,39.134,5.548c-0.064-0.062-2.173-2.138-4.829-2.138
			c-1.665,0-3.275,0.839-4.782,2.496c0,0-25.489,23.966-25.662,24.643c-0.173,0.677,0.094,0.828,1.379,0.87
			c1.363,0.044,5.249-0.228,6.308,0.962c0.703,0.789,0.414,3.329,0.414,3.813v20.239c0.25,0.623,1.26,2.535,4.265,2.535h7.263
			c0.339-0.049,0.386-0.845,0.386-1.185V40.349c0-1.429,1.091-5.138,6.08-5.138h8.542C38.642,35.194,38.876,35.174,39.167,35.174z"
			/>
	</g>
</g>
</svg>
