<?xml version="1.0" encoding="utf-8"?>
<!-- Generator: Adobe Illustrator 17.0.0, SVG Export Plug-In . SVG Version: 6.00 Build 0)  -->
<!DOCTYPE svg PUBLIC "-//W3C//DTD SVG 1.1//EN" "http://www.w3.org/Graphi/Public/Home/svg/1.1/DTD/svg11.dtd">
<svg version="1.1" id="图层_1" xmlns="http://www.w3.org/2000/svg" xmlns:xlink="http://www.w3.org/1999/xlink" x="0px" y="0px"
	 width="296.805px" height="96.869px" viewBox="0 0 296.805 96.869" enable-background="new 0 0 296.805 96.869"
	 xml:space="preserve">
<g>
	<path fill="#231815" d="M111.301,0C93.029,0,78.216,13.951,78.216,31.16c0,0.379,0.016,0.754,0.03,1.13h-0.03v64.579h66.169V32.29
		h-0.03c0.014-0.376,0.03-0.751,0.03-1.13C144.385,13.951,129.573,0,111.301,0z"/>
	<path fill="#231815" d="M21.083,42.642h42.166V0.476H21.083C9.439,0.476,0,9.915,0,21.559S9.439,42.642,21.083,42.642z"/>
	<path fill="#231815" d="M46.25,54.656H4.085v42.166H46.25c11.644,0,21.083-9.439,21.083-21.083S57.894,54.656,46.25,54.656z"/>
	<path fill="#231815" d="M175.263,42.622h42.166V0.456h-42.166c-11.644,0-21.083,9.439-21.083,21.083
		C154.18,33.183,163.619,42.622,175.263,42.622z"/>
	<path fill="#231815" d="M200.431,54.636h-42.166v42.166h42.166c11.644,0,21.083-9.439,21.083-21.083
		C221.513,64.075,212.074,54.636,200.431,54.636z"/>
	<path fill="#231815" d="M230.635,0.837v65.022h0.114c1.345,17.297,15.587,30.911,32.971,30.911s31.626-13.614,32.971-30.911h0.114
		V0.837H230.635z"/>
</g>
</svg>
