<?xml version="1.0" encoding="utf-8"?>
<!-- Generator: Adobe Illustrator 17.0.0, SVG Export Plug-In . SVG Version: 6.00 Build 0)  -->
<!DOCTYPE svg PUBLIC "-//W3C//DTD SVG 1.1//EN" "http://www.w3.org/Graphi/Public/Home/svg/1.1/DTD/svg11.dtd">
<svg version="1.1" id="图层_1" xmlns="http://www.w3.org/2000/svg" xmlns:xlink="http://www.w3.org/1999/xlink" x="0px" y="0px"
	 width="53.511px" height="32.311px" viewBox="0 0 53.511 32.311" enable-background="new 0 0 53.511 32.311" xml:space="preserve">
<g>
	<path fill="#666666" d="M26.272,0.005c5.862,0.002,10.932,1.19,15.71,3.588c2.913,1.461,5.558,3.308,7.823,5.665
		c1.359,1.414,2.527,2.964,3.283,4.8c0.633,1.537,0.537,3.025-0.166,4.507c-1.004,2.116-2.487,3.864-4.201,5.421
		c-4.286,3.892-9.317,6.336-14.947,7.582c-1.619,0.358-3.261,0.567-4.919,0.674c-5.186,0.332-10.168-0.534-14.951-2.539
		c-4.066-1.704-7.698-4.064-10.702-7.324c-1.097-1.19-2.033-2.494-2.701-3.984c-0.706-1.576-0.655-3.118,0.078-4.666
		c0.672-1.419,1.58-2.673,2.643-3.816c3.429-3.688,7.614-6.208,12.31-7.931c2.3-0.844,4.671-1.407,7.097-1.724
		C24.007,0.077,25.394-0.025,26.272,0.005z M13.931,16.1c0.008,0.92,0.08,1.805,0.261,2.675c0.682,3.275,2.323,5.959,5.005,7.974
		c2.744,2.062,5.843,2.856,9.237,2.423c3.381-0.431,6.15-2.032,8.262-4.679c2.564-3.214,3.41-6.903,2.668-10.936
		c-0.425-2.31-1.428-4.369-2.994-6.126c-2.91-3.265-6.571-4.737-10.919-4.336c-3.029,0.279-5.628,1.588-7.747,3.766
		C15.203,9.432,13.985,12.551,13.931,16.1z"/>
	<path fill="#666666" d="M34.991,16.166c-0.126,3.223-1.498,5.735-4.316,7.375c-3.23,1.879-7.613,1.079-10.041-1.768
		c-1.566-1.836-2.281-3.954-2.088-6.344c0.32-3.977,3.314-7.125,7.106-7.638c3.46-0.468,6.884,1.35,8.423,4.485
		C34.676,13.504,34.994,14.791,34.991,16.166z"/>
</g>
</svg>
