<?xml version="1.0" standalone="no"?><!DOCTYPE svg PUBLIC "-//W3C//DTD SVG 1.1//EN" "http://www.w3.org/Graphics/SVG/1.1/DTD/svg11.dtd"><svg width="200" height="200" viewBox="0 0 200 200" version="1.1" xmlns="http://www.w3.org/2000/svg" xmlns:xlink="http://www.w3.org/1999/xlink"><defs><style type="text/css"><![CDATA[
@font-face { font-family: ifont; src: url("http://at.alicdn.com/t/font_1442373896_4754455.eot?#iefix") format("embedded-opentype"), url("http://at.alicdn.com/t/font_1442373896_4754455.woff") format("woff"), url("http://at.alicdn.com/t/font_1442373896_4754455.ttf") format("truetype"), url("http://at.alicdn.com/t/font_1442373896_4754455.svg#ifont") format("svg"); }

]]></style></defs><g class="transform-group"><g transform="scale(0.1953125, 0.1953125)"><path d="M1008 192l-992 0C7.168 192 0 184.832 0 176S7.168 160 16 160l992 0C1016.832 160 1024 167.168 1024 176S1016.832 192 1008 192zM1008 512l-992 0C7.168 512 0 504.832 0 496S7.168 480 16 480l992 0c8.832 0 16 7.168 16 16S1016.832 512 1008 512zM1008 832l-992 0C7.168 832 0 824.832 0 816S7.168 800 16 800l992 0c8.832 0 16 7.168 16 16S1016.832 832 1008 832z" fill="#272636"></path></g></g></svg>