<?xml version="1.0" encoding="utf-8"?>
<!-- Generator: Adobe Illustrator 17.0.0, SVG Export Plug-In . SVG Version: 6.00 Build 0)  -->
<!DOCTYPE svg PUBLIC "-//W3C//DTD SVG 1.1//EN" "http://www.w3.org/Graphics/SVG/1.1/DTD/svg11.dtd">
<svg version="1.1" id="图层_1" xmlns="http://www.w3.org/2000/svg" xmlns:xlink="http://www.w3.org/1999/xlink" x="0px" y="0px"
	 width="607.354px" height="143.121px" viewBox="0 0 607.354 143.121" enable-background="new 0 0 607.354 143.121"
	 xml:space="preserve">
<g>
	<g>
		<path fill-rule="evenodd" clip-rule="evenodd" fill="#333333" d="M164.447,0c-27,0-48.883,20.612-48.883,46.035
			c0,0.561,0.024,1.116,0.045,1.672h-0.045v95.414h97.761V47.707h-0.045c0.021-0.556,0.045-1.111,0.045-1.672
			C213.325,20.612,191.442,0,164.447,0z"/>
		<path fill-rule="evenodd" clip-rule="evenodd" fill="#333333" d="M31.147,63.002h62.3v-62.3h-62.3C13.946,0.702,0,14.648,0,31.849
			C0,49.056,13.946,63.002,31.147,63.002z"/>
		<path fill-rule="evenodd" clip-rule="evenodd" fill="#333333" d="M68.336,80.749h-62.3v62.3h62.3
			c17.201,0,31.147-13.946,31.147-31.147C99.483,94.695,85.537,80.749,68.336,80.749z"/>
		<path fill-rule="evenodd" clip-rule="evenodd" fill="#333333" d="M258.947,62.974h62.3v-62.3h-62.3
			c-17.201,0-31.147,13.946-31.147,31.147C227.8,49.028,241.746,62.974,258.947,62.974z"/>
		<path fill-rule="evenodd" clip-rule="evenodd" fill="#333333" d="M296.131,80.721h-62.3v62.3h62.3
			c17.207,0,31.153-13.946,31.153-31.147C327.283,94.667,313.338,80.721,296.131,80.721z"/>
		<path fill-rule="evenodd" clip-rule="evenodd" fill="#333333" d="M438.528,1.237h-97.766v96.066h0.168
			c1.986,25.553,23.027,45.673,48.709,45.673c25.688,0,46.729-20.12,48.715-45.673h0.174V1.237z"/>
	</g>
	<path fill="#333333" d="M457.294,77.297v-60.86h19.374c3.012-5.072,5.056-9.296,6.135-12.679h9.362
		c-2.312,5.681-3.82,9.175-5.81,12.679h34.551v48.498c0,8.241-3.904,12.569-11.866,12.361c-1.938,0-4.938,0.007-4.938,0.007
		c0-2.748,0-7.676,0-7.676c3.137-0.052,0.582,0.018,2.969,0c4.79-0.037,5.781-1.718,5.762-5.643V23.728h-47.144v53.569H457.294z
		 M474.085,61.448V33.238h30.03v28.211H474.085z M481.834,54.475h14.531V40.211h-14.531V54.475z"/>
	<path fill="#333333" d="M545.656,61.132l-2.906-6.023c3.229-0.634,6.135-1.476,8.718-2.536c0.858-0.421,2.261-0.951,4.198-1.585
		c3.658-1.476,6.458-2.64,8.396-3.487l-12.593,0.317c-1.726,0-3.663,0.213-5.812,0.634l-2.583-5.072
		c2.366-0.421,5.056-1.268,8.073-2.536c1.075-0.634,3.335-1.793,6.781-3.487h-22.323v-6.023h31.687v-4.438h-20.02v-6.022h20.02
		v-4.121h-25.832v-6.023h25.832v-6.34h8.073v6.34h25.833v6.023h-25.833v4.121h20.343v6.022h-20.343v4.438h31.991v6.023h-15.845
		l3.552,2.536c-11.454,5.391-28.644,13.351-34.551,14.581l26.801-1.268c-0.863-0.634-2.155-1.585-3.875-2.853
		c-0.646-0.421-1.08-0.738-1.292-0.951l5.489-3.803c4.304,2.748,9.783,6.48,15.176,11.411l-3.552,5.072
		c-0.967-1.107-4.844-3.487-5.489-4.121l-17.114,0.634v10.46c0,5.493-2.801,8.247-10.01,8.241c-0.434,0-1.292-0.006-2.583,0
		c-1.239,0.006-3.145,0.006-3.145,0.006c0-3.19-0.023-5.927,0-7.676c0,0,2.087,0,3.812,0c2.795,0,3.875-0.521,3.854-2.454V59.23
		C568.583,59.23,549.104,59.687,545.656,61.132z M540.813,76.664c-0.708-1.576-1.583-3.213-3.708-5.38
		c0,0,13.179-5.818,19.208-10.469l5.167,4.438C556.524,68.635,540.813,76.664,540.813,76.664z M570.52,37.358
		c-3.875,2.115-7.321,3.803-10.333,5.071l16.145-0.317c1.503-0.634,3.658-1.585,6.458-2.853c1.721-0.842,3.012-1.476,3.875-1.901
		H570.52z M603.729,76.744c-6.48-3.718-14.205-7.45-22.553-11.174l4.843-4.755c7.75,3.596,14.314,6.766,19.697,9.51L603.729,76.744z
		"/>
	<g>
		<path fill="#333333" d="M576.417,100.133v20.832c0,6.033,1.528,11.341,8.687,11.341c7.159,0,8.687-5.309,8.687-11.341v-20.832
			h7.239v21.637c0,10.295-4.826,17.293-15.926,17.293s-15.926-6.998-15.926-17.293v-21.637H576.417z"/>
		<path fill="#333333" d="M518.059,137.61v-20.832c0-6.033-1.528-11.341-8.687-11.341s-8.687,5.309-8.687,11.341v20.832h-7.239
			v-21.637c0-10.295,4.826-17.293,15.926-17.293s15.926,6.998,15.926,17.293v21.637H518.059z"/>
		<g>
			<path fill="#333333" d="M462.175,124.706c0.185,2.04,0.705,3.604,1.561,4.691c1.573,1.972,4.303,2.958,8.189,2.958
				c2.313,0,4.348-0.493,6.107-1.479c1.758-0.986,2.637-2.51,2.637-4.572c0-1.564-0.703-2.754-2.108-3.57
				c-0.899-0.498-2.672-1.076-5.321-1.734l-4.94-1.224c-3.155-0.77-5.482-1.632-6.979-2.584c-2.672-1.654-4.007-3.943-4.007-6.867
				c0-3.444,1.257-6.232,3.772-8.363c2.514-2.13,5.897-3.196,10.146-3.196c5.558,0,9.566,1.61,12.024,4.828
				c1.539,2.04,2.286,4.238,2.241,6.595h-5.779c-0.116-1.375-0.615-2.625-1.496-3.753c-1.438-1.6-3.933-2.4-7.482-2.4
				c-2.366,0-4.159,0.44-5.377,1.321c-1.218,0.881-1.827,2.044-1.827,3.489c0,1.581,0.8,2.846,2.401,3.794
				c0.923,0.565,2.286,1.062,4.087,1.493l4.122,0.986c4.479,1.066,7.481,2.097,9.006,3.094c2.38,1.564,3.569,4.023,3.569,7.377
				c0,3.241-1.245,6.04-3.735,8.397c-2.489,2.357-6.281,3.536-11.375,3.536c-5.484,0-9.368-1.23-11.651-3.689
				c-2.283-2.459-3.505-5.502-3.665-9.128H462.175z"/>
		</g>
		<g>
			<path fill="#333333" d="M537.906,124.706c0.185,2.04,0.705,3.604,1.561,4.691c1.573,1.972,4.303,2.958,8.189,2.958
				c2.313,0,4.348-0.493,6.107-1.479c1.758-0.986,2.637-2.51,2.637-4.572c0-1.564-0.703-2.754-2.108-3.57
				c-0.899-0.498-2.672-1.076-5.321-1.734l-4.94-1.224c-3.155-0.77-5.482-1.632-6.979-2.584c-2.672-1.654-4.008-3.943-4.008-6.867
				c0-3.444,1.257-6.232,3.772-8.363c2.514-2.13,5.897-3.196,10.146-3.196c5.558,0,9.566,1.61,12.024,4.828
				c1.539,2.04,2.286,4.238,2.241,6.595h-5.779c-0.116-1.375-0.615-2.625-1.496-3.753c-1.438-1.6-3.933-2.4-7.482-2.4
				c-2.366,0-4.159,0.44-5.377,1.321c-1.218,0.881-1.827,2.044-1.827,3.489c0,1.581,0.8,2.846,2.401,3.794
				c0.923,0.565,2.286,1.062,4.087,1.493l4.122,0.986c4.479,1.066,7.481,2.097,9.006,3.094c2.38,1.564,3.569,4.023,3.569,7.377
				c0,3.241-1.245,6.04-3.735,8.397c-2.489,2.357-6.281,3.536-11.375,3.536c-5.484,0-9.368-1.23-11.651-3.689
				c-2.283-2.459-3.505-5.502-3.665-9.128H537.906z"/>
		</g>
	</g>
</g>
</svg>
