<?xml version="1.0" encoding="utf-8"?>
<!-- Generator: Adobe Illustrator 17.0.0, SVG Export Plug-In . SVG Version: 6.00 Build 0)  -->
<!DOCTYPE svg PUBLIC "-//W3C//DTD SVG 1.1//EN" "http://www.w3.org/Graphics/SVG/1.1/DTD/svg11.dtd">
<svg version="1.1" id="图层_1" xmlns="http://www.w3.org/2000/svg" xmlns:xlink="http://www.w3.org/1999/xlink" x="0px" y="0px"
	 width="448.596px" height="649.438px" viewBox="0 0 448.596 649.438" enable-background="new 0 0 448.596 649.438"
	 xml:space="preserve">
<path fill-rule="evenodd" clip-rule="evenodd" fill="#FFFF00" d="M332.328,324.719c0,80.955,10.07,220.377-108.03,220.377
	S116.269,405.674,116.269,324.719c0-80.955-10.071-220.377,108.029-220.377S332.328,243.764,332.328,324.719z M448.596,324.719
	c0-102.543-10.07-206.885-75.986-268.95C339.652,24.286,292.961,0,224.298,0C155.635,0,108.945,24.286,75.987,55.769
	C10.071,117.834,0,222.176,0,324.719s10.071,206.885,75.987,268.95c32.958,31.482,79.648,55.769,148.311,55.769
	c68.663,0,115.354-24.286,148.312-55.769C438.526,531.603,448.596,427.262,448.596,324.719z"/>
</svg>
