<?xml version="1.0" encoding="utf-8"?>
<!-- Generator: Adobe Illustrator 17.0.0, SVG Export Plug-In . SVG Version: 6.00 Build 0)  -->
<!DOCTYPE svg PUBLIC "-//W3C//DTD SVG 1.1//EN" "http://www.w3.org/Graphics/SVG/1.1/DTD/svg11.dtd">
<svg version="1.1" id="图层_1" xmlns="http://www.w3.org/2000/svg" xmlns:xlink="http://www.w3.org/1999/xlink" x="0px" y="0px"
	 width="1286.876px" height="530.921px" viewBox="0 0 1286.876 530.921" enable-background="new 0 0 1286.876 530.921"
	 xml:space="preserve">
<path fill-rule="evenodd" clip-rule="evenodd" fill="#333333" d="M1016.649,463.885c0,6.345,1.193,10.941,3.578,13.789
	c2.385,2.848,5.407,4.272,9.065,4.272c3.381,0,6.218-1.401,8.51-4.203c2.292-2.802,3.439-7.514,3.439-14.136
	c0-5.835-1.123-10.119-3.369-12.851c-2.247-2.732-4.967-4.098-8.163-4.098c-3.844,0-6.981,1.424-9.413,4.272
	C1017.865,453.778,1016.649,458.096,1016.649,463.885z M988.307,399.142h28.551v35.289c2.825-2.964,6.032-5.187,9.621-6.669
	c3.589-1.482,7.56-2.223,11.914-2.223c8.984,0,16.417,3.23,22.298,9.691c5.882,6.461,8.823,15.734,8.823,27.822
	c0,8.058-1.343,15.155-4.029,21.292s-6.403,10.721-11.15,13.754c-4.747,3.033-10.015,4.55-15.804,4.55
	c-4.955,0-9.493-1.065-13.615-3.196c-3.103-1.667-6.484-4.793-10.142-9.378v10.906h-26.467V399.142z M947.808,457.564
	c-0.556-5.465-2.026-9.378-4.411-11.74c-2.385-2.362-5.523-3.543-9.413-3.543c-4.492,0-8.081,1.783-10.767,5.349
	c-1.714,2.223-2.802,5.534-3.265,9.934H947.808z M976.567,471.11h-56.685c0.51,4.539,1.737,7.919,3.682,10.142
	c2.732,3.195,6.298,4.793,10.698,4.793c2.779,0,5.418-0.695,7.919-2.084c1.528-0.88,3.172-2.431,4.932-4.654l27.856,2.57
	c-4.261,7.41-9.401,12.724-15.422,15.943c-6.021,3.219-14.657,4.828-25.911,4.828c-9.772,0-17.459-1.378-23.063-4.133
	c-5.604-2.756-10.246-7.132-13.928-13.129c-3.682-5.997-5.523-13.048-5.523-21.153c0-11.532,3.693-20.863,11.08-27.995
	c7.387-7.132,17.587-10.698,30.6-10.698c10.559,0,18.895,1.598,25.008,4.793s10.767,7.827,13.963,13.893s4.793,13.963,4.793,23.688
	V471.11z M753.647,427.207h27.37l11.879,46.473l15.005-46.473h25.494l15.561,46.473l11.879-46.473h27.162l-27.162,73.774h-25.147
	l-14.935-44.389l-14.449,44.389h-25.286L753.647,427.207z M619.646,427.207h26.328v12.018c3.936-4.909,7.919-8.417,11.948-10.524
	c4.029-2.107,8.938-3.161,14.727-3.161c7.827,0,13.951,2.327,18.374,6.981c4.423,4.654,6.634,11.844,6.634,21.569v46.89h-28.412
	v-40.569c0-4.631-0.857-7.908-2.57-9.83c-1.714-1.922-4.122-2.883-7.225-2.883c-3.427,0-6.206,1.297-8.336,3.89
	c-2.13,2.594-3.195,7.248-3.195,13.963v35.428h-28.273V427.207z M477.03,427.207h27.37l11.879,46.473l15.005-46.473h25.494
	l15.561,46.473l11.879-46.473h27.161l-27.161,73.774H559.07l-14.935-44.389l-14.449,44.389H504.4L477.03,427.207z M417.913,464.232
	c0,6.576,1.331,11.439,3.994,14.588c2.663,3.149,6.009,4.724,10.038,4.724c4.075,0,7.421-1.551,10.038-4.654
	c2.617-3.103,3.925-8.081,3.925-14.935c0-6.391-1.32-11.149-3.96-14.275c-2.64-3.126-5.905-4.689-9.795-4.689
	c-4.122,0-7.526,1.586-10.212,4.758C419.256,452.921,417.913,457.749,417.913,464.232z M389.571,464.302
	c0-11.254,3.798-20.528,11.393-27.822c7.595-7.294,17.853-10.941,30.774-10.941c14.773,0,25.934,4.284,33.483,12.851
	c6.067,6.9,9.1,15.398,9.1,25.494c0,11.346-3.763,20.643-11.288,27.891c-7.526,7.248-17.934,10.872-31.225,10.872
	c-11.856,0-21.442-3.01-28.759-9.031C394.063,486.161,389.571,476.389,389.571,464.302z M282.731,427.207h26.467v12.087
	c2.547-5.233,5.175-8.834,7.884-10.802c2.709-1.968,6.055-2.952,10.038-2.952c4.168,0,8.73,1.297,13.685,3.89l-8.753,20.146
	c-3.334-1.389-5.974-2.084-7.919-2.084c-3.705,0-6.576,1.528-8.614,4.585c-2.918,4.307-4.376,12.365-4.376,24.174v24.73h-28.412
	V427.207z M265.294,500.98h-26.397v-11.948c-3.937,4.909-7.908,8.405-11.914,10.489c-4.006,2.084-8.926,3.126-14.762,3.126
	c-7.78,0-13.882-2.327-18.305-6.982c-4.423-4.654-6.634-11.821-6.634-21.5v-46.96h28.412v40.569c0,4.631,0.857,7.919,2.57,9.864
	c1.714,1.945,4.122,2.918,7.225,2.918c3.381,0,6.148-1.297,8.301-3.89c2.153-2.593,3.23-7.248,3.23-13.963v-35.498h28.273V500.98z
	 M117.538,464.232c0,6.576,1.331,11.439,3.994,14.588c2.663,3.149,6.009,4.724,10.038,4.724c4.075,0,7.421-1.551,10.038-4.654
	c2.617-3.103,3.925-8.081,3.925-14.935c0-6.391-1.32-11.149-3.96-14.275c-2.64-3.126-5.905-4.689-9.795-4.689
	c-4.122,0-7.526,1.586-10.212,4.758C118.881,452.921,117.538,457.749,117.538,464.232z M89.196,464.302
	c0-11.254,3.797-20.528,11.393-27.822c7.595-7.294,17.853-10.941,30.774-10.941c14.773,0,25.934,4.284,33.483,12.851
	c6.067,6.9,9.1,15.398,9.1,25.494c0,11.346-3.763,20.643-11.288,27.891c-7.526,7.248-17.934,10.872-31.225,10.872
	c-11.856,0-21.442-3.01-28.759-9.031C93.688,486.161,89.196,476.389,89.196,464.302z M0,427.207h29.871l15.213,49.113l14.102-49.113
	h27.856l-29.246,78.845c-3.334,8.984-6.738,15.051-10.212,18.2c-4.909,4.446-12.388,6.669-22.438,6.669
	c-4.075,0-10.374-0.556-18.895-1.667l-2.223-19.729c4.075,1.297,8.614,1.945,13.616,1.945c3.334,0,6.032-0.764,8.093-2.292
	c2.061-1.528,3.809-4.261,5.245-8.197L0,427.207z M1233.734,263.411c0,5.326,1.134,9.274,3.404,11.844
	c2.269,2.57,5.256,3.855,8.961,3.855c3.519,0,6.472-1.331,8.857-3.994c2.385-2.663,3.577-6.68,3.577-12.053
	c0-5.372-1.25-9.482-3.751-12.33c-2.501-2.848-5.557-4.272-9.169-4.272c-3.613,0-6.496,1.308-8.649,3.925
	C1234.81,253.003,1233.734,257.344,1233.734,263.411z M1260.34,227.636h26.466v69.675l0.07,3.265c0,4.631-0.984,9.042-2.952,13.233
	c-1.969,4.191-4.585,7.583-7.85,10.177c-3.265,2.593-7.41,4.469-12.435,5.627c-5.025,1.158-10.779,1.737-17.262,1.737
	c-14.82,0-24.997-2.223-30.531-6.669c-5.534-4.446-8.301-10.397-8.301-17.853c0-0.926,0.046-2.177,0.139-3.751l27.439,3.126
	c0.695,2.547,1.76,4.307,3.196,5.28c2.084,1.436,4.7,2.154,7.849,2.154c4.076,0,7.121-1.088,9.135-3.265
	c2.015-2.177,3.022-5.974,3.022-11.393v-11.184c-2.779,3.288-5.557,5.673-8.336,7.155c-4.353,2.316-9.054,3.473-14.102,3.473
	c-9.864,0-17.83-4.307-23.896-12.921c-4.307-6.113-6.461-14.194-6.461-24.244c0-11.485,2.779-20.238,8.336-26.259
	c5.558-6.02,12.828-9.031,21.813-9.031c5.742,0,10.478,0.973,14.206,2.918s7.213,5.164,10.455,9.656V227.636z M1114.112,227.636
	h26.328v12.018c3.936-4.909,7.919-8.417,11.948-10.524c4.029-2.107,8.938-3.161,14.727-3.161c7.826,0,13.951,2.327,18.374,6.981
	s6.634,11.844,6.634,21.569v46.89h-28.412v-40.569c0-4.631-0.857-7.908-2.57-9.83c-1.714-1.922-4.122-2.883-7.225-2.883
	c-3.427,0-6.206,1.297-8.336,3.89c-2.13,2.593-3.195,7.248-3.195,13.963v35.428h-28.273V227.636z M1067.777,227.636h28.273v73.774
	h-28.273V227.636z M1067.777,199.571h28.273v19.242h-28.273V199.571z M924.675,227.636h26.397v10.767
	c3.798-4.492,7.63-7.688,11.497-9.586s8.533-2.848,13.998-2.848c5.882,0,10.536,1.042,13.963,3.126
	c3.427,2.084,6.229,5.187,8.406,9.309c4.446-4.816,8.498-8.093,12.157-9.83s8.174-2.605,13.546-2.605
	c7.919,0,14.102,2.35,18.548,7.051c4.446,4.701,6.669,12.052,6.669,22.056v46.334h-28.343v-42.027c0-3.334-0.648-5.812-1.945-7.433
	c-1.899-2.547-4.261-3.821-7.086-3.821c-3.334,0-6.02,1.204-8.058,3.612c-2.038,2.408-3.056,6.275-3.056,11.601v38.068h-28.343
	v-40.638c0-3.242-0.185-5.441-0.556-6.599c-0.602-1.853-1.644-3.346-3.126-4.481c-1.482-1.135-3.219-1.702-5.21-1.702
	c-3.242,0-5.905,1.227-7.989,3.682c-2.084,2.455-3.126,6.484-3.126,12.087v37.651h-28.342V227.636z M782.407,227.636h26.397v10.767
	c3.798-4.492,7.63-7.688,11.497-9.586s8.533-2.848,13.998-2.848c5.882,0,10.536,1.042,13.963,3.126
	c3.427,2.084,6.229,5.187,8.405,9.309c4.446-4.816,8.498-8.093,12.157-9.83c3.659-1.737,8.174-2.605,13.546-2.605
	c7.919,0,14.102,2.35,18.548,7.051c4.446,4.701,6.669,12.052,6.669,22.056v46.334h-28.343v-42.027c0-3.334-0.648-5.812-1.945-7.433
	c-1.899-2.547-4.261-3.821-7.086-3.821c-3.334,0-6.02,1.204-8.058,3.612c-2.038,2.408-3.057,6.275-3.057,11.601v38.068h-28.343
	v-40.638c0-3.242-0.185-5.441-0.556-6.599c-0.602-1.853-1.644-3.346-3.126-4.481c-1.482-1.135-3.219-1.702-5.21-1.702
	c-3.242,0-5.905,1.227-7.989,3.682c-2.084,2.455-3.126,6.484-3.126,12.087v37.651h-28.343V227.636z M737.601,266.398
	c-3.89,1.389-7.942,2.617-12.157,3.682c-5.743,1.528-9.378,3.033-10.906,4.515c-1.575,1.528-2.362,3.265-2.362,5.21
	c0,2.223,0.776,4.041,2.327,5.453s3.832,2.119,6.843,2.119c3.149,0,6.078-0.764,8.788-2.292c2.709-1.528,4.631-3.392,5.766-5.592
	c1.135-2.2,1.702-5.06,1.702-8.579V266.398z M713.079,251.532l-27.023-2.848c1.019-4.724,2.489-8.44,4.411-11.15
	s4.689-5.06,8.301-7.051c2.594-1.436,6.159-2.547,10.698-3.334c4.539-0.787,9.448-1.181,14.727-1.181
	c8.475,0,15.283,0.475,20.423,1.424c5.141,0.949,9.424,2.929,12.851,5.94c2.408,2.084,4.307,5.036,5.696,8.857
	c1.389,3.821,2.084,7.468,2.084,10.941v32.58c0,3.473,0.22,6.194,0.66,8.162c0.44,1.968,1.401,4.481,2.883,7.537h-26.536
	c-1.065-1.899-1.76-3.346-2.084-4.342c-0.324-0.996-0.648-2.559-0.973-4.689c-3.705,3.566-7.387,6.113-11.045,7.641
	c-5.002,2.038-10.814,3.056-17.436,3.056c-8.799,0-15.479-2.038-20.041-6.113s-6.842-9.1-6.842-15.074
	c0-5.604,1.644-10.212,4.932-13.824s9.355-6.298,18.2-8.058c10.605-2.13,17.482-3.624,20.632-4.481
	c3.149-0.857,6.484-1.98,10.003-3.369c0-3.473-0.718-5.905-2.154-7.294c-1.436-1.389-3.96-2.084-7.572-2.084
	c-4.631,0-8.104,0.741-10.42,2.223C715.649,246.16,714.19,248.337,713.079,251.532z M622.007,227.636h26.467v12.087
	c2.547-5.233,5.175-8.834,7.885-10.802c2.709-1.968,6.055-2.952,10.038-2.952c4.168,0,8.73,1.297,13.685,3.89l-8.753,20.145
	c-3.334-1.389-5.974-2.084-7.919-2.084c-3.705,0-6.576,1.528-8.614,4.585c-2.918,4.307-4.376,12.365-4.376,24.174v24.73h-28.412
	V227.636z M548.998,263.411c0,5.326,1.135,9.274,3.404,11.844c2.269,2.57,5.256,3.855,8.961,3.855c3.52,0,6.472-1.331,8.857-3.994
	c2.385-2.663,3.578-6.68,3.578-12.053c0-5.372-1.25-9.482-3.751-12.33c-2.501-2.848-5.557-4.272-9.17-4.272
	c-3.612,0-6.495,1.308-8.649,3.925C550.074,253.003,548.998,257.344,548.998,263.411z M575.604,227.636h26.467v69.675l0.069,3.265
	c0,4.631-0.984,9.042-2.952,13.233c-1.968,4.191-4.585,7.583-7.85,10.177c-3.265,2.593-7.41,4.469-12.435,5.627
	c-5.025,1.158-10.779,1.737-17.262,1.737c-14.82,0-24.997-2.223-30.531-6.669c-5.534-4.446-8.301-10.397-8.301-17.853
	c0-0.926,0.046-2.177,0.139-3.751l27.439,3.126c0.695,2.547,1.76,4.307,3.195,5.28c2.084,1.436,4.701,2.154,7.85,2.154
	c4.075,0,7.12-1.088,9.135-3.265c2.015-2.177,3.022-5.974,3.022-11.393v-11.184c-2.779,3.288-5.557,5.673-8.336,7.155
	c-4.353,2.316-9.054,3.473-14.102,3.473c-9.864,0-17.83-4.307-23.897-12.921c-4.307-6.113-6.46-14.194-6.46-24.244
	c0-11.485,2.779-20.238,8.336-26.259c5.557-6.02,12.828-9.031,21.813-9.031c5.743,0,10.478,0.973,14.206,2.918
	c3.728,1.945,7.213,5.164,10.455,9.656V227.636z M454.245,264.662c0,6.576,1.332,11.439,3.994,14.588
	c2.663,3.149,6.009,4.724,10.038,4.724c4.075,0,7.421-1.551,10.038-4.654c2.617-3.103,3.925-8.081,3.925-14.935
	c0-6.391-1.32-11.149-3.96-14.276c-2.64-3.126-5.905-4.689-9.795-4.689c-4.122,0-7.526,1.586-10.212,4.759
	C455.588,253.35,454.245,258.178,454.245,264.662z M425.902,264.731c0-11.254,3.797-20.527,11.393-27.822
	c7.595-7.294,17.853-10.941,30.774-10.941c14.773,0,25.934,4.284,33.483,12.851c6.067,6.9,9.1,15.398,9.1,25.494
	c0,11.346-3.763,20.643-11.288,27.891c-7.526,7.248-17.934,10.872-31.225,10.872c-11.856,0-21.442-3.01-28.759-9.031
	C430.394,286.59,425.902,276.818,425.902,264.731z M364.215,227.636h26.467v12.087c2.547-5.233,5.175-8.834,7.884-10.802
	c2.709-1.968,6.055-2.952,10.038-2.952c4.168,0,8.73,1.297,13.685,3.89l-8.753,20.145c-3.334-1.389-5.974-2.084-7.919-2.084
	c-3.705,0-6.576,1.528-8.614,4.585c-2.918,4.307-4.376,12.365-4.376,24.174v24.73h-28.412V227.636z M297.527,264.731
	c0,5.835,1.227,10.165,3.682,12.99c2.454,2.825,5.557,4.238,9.309,4.238c3.288,0,6.044-1.355,8.267-4.064
	c2.223-2.709,3.334-7.306,3.334-13.789c0-5.974-1.158-10.362-3.473-13.164c-2.316-2.802-5.141-4.203-8.475-4.203
	c-3.612,0-6.622,1.413-9.031,4.238C298.731,253.802,297.527,258.386,297.527,264.731z M269.185,329.474V227.636h26.467v10.906
	c3.659-4.585,7.016-7.688,10.073-9.309c4.122-2.177,8.683-3.265,13.685-3.265c9.864,0,17.494,3.774,22.889,11.323
	c5.395,7.549,8.093,16.88,8.093,27.995c0,12.272-2.941,21.639-8.822,28.099c-5.882,6.46-13.315,9.691-22.299,9.691
	c-4.353,0-8.324-0.741-11.914-2.223c-3.589-1.482-6.796-3.682-9.621-6.599v35.22H269.185z M151.577,264.662
	c0,6.576,1.331,11.439,3.994,14.588c2.663,3.149,6.009,4.724,10.038,4.724c4.075,0,7.421-1.551,10.038-4.654
	c2.617-3.103,3.925-8.081,3.925-14.935c0-6.391-1.32-11.149-3.96-14.276c-2.64-3.126-5.905-4.689-9.795-4.689
	c-4.122,0-7.526,1.586-10.212,4.759C152.92,253.35,151.577,258.178,151.577,264.662z M123.234,264.731
	c0-11.254,3.798-20.527,11.393-27.822c7.595-7.294,17.853-10.941,30.774-10.941c14.773,0,25.934,4.284,33.483,12.851
	c6.067,6.9,9.1,15.398,9.1,25.494c0,11.346-3.763,20.643-11.288,27.891c-7.526,7.248-17.934,10.872-31.225,10.872
	c-11.856,0-21.442-3.01-28.759-9.031C127.727,286.59,123.234,276.818,123.234,264.731z M10.281,199.571h29.385l38.346,56.338
	v-56.338h29.662V301.41H78.011l-38.137-55.921v55.921H10.281V199.571z M688.001,28.065h26.328v12.018
	c3.937-4.909,7.919-8.417,11.948-10.524c4.029-2.107,8.938-3.161,14.727-3.161c7.827,0,13.951,2.327,18.374,6.982
	c4.423,4.654,6.634,11.844,6.634,21.57v46.89h-28.412V61.27c0-4.631-0.857-7.908-2.57-9.83c-1.714-1.922-4.122-2.883-7.225-2.883
	c-3.427,0-6.206,1.297-8.336,3.89c-2.13,2.593-3.195,7.248-3.195,13.963v35.428h-28.273V28.065z M617.839,63.84
	c0,5.326,1.135,9.274,3.404,11.844c2.269,2.57,5.256,3.855,8.961,3.855c3.52,0,6.472-1.331,8.857-3.994
	c2.385-2.663,3.578-6.68,3.578-12.052c0-5.372-1.25-9.482-3.751-12.33c-2.501-2.848-5.557-4.272-9.17-4.272
	s-6.495,1.308-8.649,3.925S617.839,57.773,617.839,63.84z M644.445,28.065h26.467V97.74l0.069,3.265
	c0,4.631-0.984,9.042-2.952,13.233c-1.968,4.191-4.585,7.583-7.85,10.177c-3.265,2.594-7.41,4.469-12.435,5.627
	c-5.025,1.158-10.779,1.737-17.262,1.737c-14.82,0-24.997-2.223-30.531-6.669c-5.534-4.446-8.301-10.397-8.301-17.853
	c0-0.926,0.046-2.177,0.139-3.751l27.439,3.126c0.695,2.547,1.76,4.307,3.195,5.279c2.084,1.436,4.701,2.154,7.85,2.154
	c4.075,0,7.12-1.088,9.135-3.265c2.015-2.177,3.022-5.974,3.022-11.393V88.223c-2.779,3.288-5.557,5.673-8.336,7.155
	c-4.353,2.316-9.054,3.473-14.102,3.473c-9.864,0-17.83-4.307-23.897-12.921c-4.307-6.113-6.46-14.194-6.46-24.244
	c0-11.485,2.779-20.238,8.336-26.259c5.557-6.02,12.828-9.031,21.813-9.031c5.743,0,10.478,0.973,14.206,2.918
	c3.728,1.945,7.213,5.164,10.455,9.656V28.065z M546.775,28.065h28.273v73.774h-28.273V28.065z M546.775,0h28.273v19.242h-28.273V0z
	 M453.828,81.415l28.065-2.64c1.158,3.335,2.779,5.72,4.863,7.155c2.084,1.436,4.863,2.154,8.336,2.154
	c3.798,0,6.738-0.81,8.822-2.431c1.621-1.204,2.431-2.709,2.431-4.515c0-2.038-1.065-3.612-3.195-4.724
	c-1.528-0.787-5.581-1.76-12.157-2.918c-9.818-1.714-16.637-3.3-20.458-4.758c-3.821-1.459-7.039-3.925-9.656-7.398
	c-2.617-3.473-3.925-7.433-3.925-11.879c0-4.863,1.413-9.054,4.238-12.574c2.825-3.52,6.715-6.148,11.67-7.884
	c4.955-1.737,11.601-2.605,19.937-2.605c8.799,0,15.294,0.672,19.486,2.015c4.191,1.343,7.688,3.427,10.49,6.252
	c2.802,2.825,5.129,6.646,6.981,11.462l-26.814,2.64c-0.695-2.362-1.853-4.098-3.473-5.21c-2.223-1.482-4.909-2.223-8.058-2.223
	c-3.195,0-5.523,0.567-6.981,1.702c-1.459,1.135-2.188,2.512-2.188,4.133c0,1.806,0.926,3.172,2.779,4.098
	c1.853,0.926,5.882,1.76,12.087,2.501c9.401,1.065,16.394,2.547,20.979,4.446c4.585,1.899,8.093,4.608,10.524,8.128
	c2.431,3.52,3.647,7.387,3.647,11.601c0,4.261-1.285,8.405-3.856,12.435c-2.57,4.029-6.622,7.236-12.157,9.621
	c-5.534,2.385-13.071,3.578-22.612,3.578c-13.477,0-23.075-1.922-28.794-5.766C459.119,93.966,455.449,88.501,453.828,81.415z
	 M417.08,58.422c-0.556-5.465-2.026-9.378-4.411-11.74c-2.385-2.362-5.523-3.543-9.413-3.543c-4.492,0-8.081,1.783-10.767,5.349
	c-1.714,2.223-2.802,5.534-3.265,9.934H417.08z M445.839,71.968h-56.685c0.509,4.539,1.737,7.919,3.682,10.142
	c2.732,3.195,6.298,4.793,10.698,4.793c2.779,0,5.418-0.695,7.919-2.084c1.528-0.88,3.172-2.431,4.932-4.654l27.856,2.57
	c-4.261,7.41-9.401,12.724-15.422,15.943c-6.021,3.219-14.658,4.828-25.911,4.828c-9.772,0-17.459-1.378-23.063-4.133
	c-5.604-2.756-10.246-7.132-13.928-13.129c-3.682-5.997-5.523-13.048-5.523-21.153c0-11.531,3.693-20.863,11.08-27.995
	c7.387-7.132,17.587-10.698,30.6-10.698c10.559,0,18.895,1.598,25.008,4.793c6.113,3.195,10.767,7.826,13.963,13.893
	c3.195,6.067,4.793,13.963,4.793,23.688V71.968z M318.367,64.743c0-5.789-1.227-10.107-3.682-12.956
	c-2.454-2.848-5.557-4.272-9.309-4.272c-3.288,0-6.044,1.366-8.267,4.099c-2.223,2.732-3.334,7.317-3.334,13.754
	c0,6.021,1.146,10.432,3.439,13.234c2.292,2.802,5.129,4.203,8.51,4.203c3.612,0,6.622-1.412,9.031-4.237
	C317.163,75.742,318.367,71.134,318.367,64.743z M346.71,0v101.839h-26.467V90.932c-3.705,4.631-7.086,7.757-10.142,9.378
	c-4.075,2.13-8.614,3.195-13.615,3.195c-10.05,0-17.726-3.821-23.028-11.462c-5.303-7.641-7.954-16.927-7.954-27.856
	c0-12.226,2.929-21.581,8.788-28.065c5.858-6.484,13.303-9.725,22.334-9.725c4.4,0,8.394,0.741,11.983,2.223
	c3.589,1.482,6.773,3.705,9.552,6.669V0H346.71z M151.577,65.091c0,6.576,1.331,11.439,3.994,14.588
	c2.663,3.149,6.009,4.724,10.038,4.724c4.075,0,7.421-1.551,10.038-4.654c2.617-3.103,3.925-8.081,3.925-14.935
	c0-6.391-1.32-11.15-3.96-14.276c-2.64-3.126-5.905-4.689-9.795-4.689c-4.122,0-7.526,1.586-10.212,4.759
	C152.92,53.779,151.577,58.607,151.577,65.091z M123.234,65.16c0-11.254,3.798-20.527,11.393-27.822
	c7.595-7.294,17.853-10.941,30.774-10.941c14.773,0,25.934,4.284,33.483,12.851c6.067,6.9,9.1,15.398,9.1,25.494
	c0,11.346-3.763,20.643-11.288,27.891c-7.526,7.248-17.934,10.872-31.225,10.872c-11.856,0-21.442-3.01-28.759-9.031
	C127.727,87.019,123.234,77.247,123.234,65.16z M10.281,0h29.385l38.346,56.338V0h29.662v101.839H78.011L39.874,45.918v55.921
	H10.281V0z"/>
</svg>
