<?xml version="1.0" encoding="utf-8"?>
<!-- Generator: Adobe Illustrator 17.0.0, SVG Export Plug-In . SVG Version: 6.00 Build 0)  -->
<!DOCTYPE svg PUBLIC "-//W3C//DTD SVG 1.1//EN" "http://www.w3.org/Graphics/SVG/1.1/DTD/svg11.dtd">
<svg version="1.1" id="图层_1" xmlns="http://www.w3.org/2000/svg" xmlns:xlink="http://www.w3.org/1999/xlink" x="0px" y="0px"
	 width="44.2px" height="35.967px" viewBox="0 0 44.2 35.967" enable-background="new 0 0 44.2 35.967" xml:space="preserve">
<g>
	<path fill="#333333" d="M0,12.681c0.055-0.426,0.101-0.854,0.168-1.278c0.225-1.436,0.719-2.779,1.455-4.029
		C3.2,4.699,5.486,2.827,8.285,1.547c1.606-0.734,3.292-1.208,5.044-1.408c4.523-0.516,8.727,0.384,12.522,2.949
		c2.077,1.404,3.707,3.217,4.773,5.507c0.349,0.75,0.614,1.529,0.788,2.36c-0.35-0.022-0.686-0.05-1.022-0.062
		c-2.882-0.101-5.558,0.591-7.997,2.135c-2.067,1.308-3.649,3.062-4.682,5.288c-0.91,1.96-1.274,4.02-1.013,6.172
		c0.083,0.682,0.231,1.356,0.355,2.068c-0.788,0-1.6,0.032-2.409-0.007c-1.433-0.07-2.827-0.408-4.228-0.689
		c-0.17-0.034-0.313-0.02-0.472,0.06c-1.654,0.836-3.312,1.664-4.968,2.494c-0.07,0.035-0.14,0.069-0.246,0.12
		c0.023-0.089,0.033-0.148,0.052-0.204c0.472-1.424,0.943-2.85,1.422-4.272c0.052-0.155,0.032-0.237-0.104-0.334
		c-1.299-0.918-2.476-1.969-3.473-3.213c-1.35-1.684-2.227-3.578-2.522-5.727C0.06,14.459,0.034,14.13,0,13.803
		C0,13.429,0,13.055,0,12.681z M12.519,8.585c-0.005-1.001-0.607-1.766-1.527-1.907c-0.868-0.133-1.637,0.089-2.279,0.705
		C8.04,8.027,8.032,9.13,8.693,9.784c0.47,0.465,1.035,0.699,1.692,0.755C11.612,10.644,12.525,9.815,12.519,8.585z M21.512,6.635
		c-0.574,0.014-1.103,0.17-1.574,0.506c-0.949,0.676-1.045,1.922-0.205,2.719c0.445,0.423,0.982,0.627,1.591,0.677
		c1.136,0.093,2.036-0.588,2.135-1.742C23.565,7.554,22.759,6.639,21.512,6.635z"/>
	<path fill="#333333" d="M44.2,23.515c-0.064,0.418-0.109,0.84-0.195,1.254c-0.252,1.211-0.762,2.315-1.442,3.343
		c-0.992,1.498-2.253,2.74-3.674,3.825c-0.146,0.111-0.167,0.205-0.115,0.373c0.355,1.153,0.7,2.309,1.047,3.464
		c0.016,0.053,0.028,0.106,0.051,0.194c-0.099-0.05-0.168-0.082-0.235-0.118c-1.279-0.702-2.558-1.402-3.835-2.108
		c-0.134-0.074-0.252-0.095-0.406-0.057c-1.123,0.275-2.245,0.556-3.4,0.671c-1.182,0.118-2.355,0.049-3.525-0.13
		c-1.956-0.299-3.788-0.947-5.462-2.006c-2.183-1.38-3.835-3.217-4.758-5.657c-0.608-1.605-0.785-3.263-0.522-4.96
		c0.424-2.728,1.795-4.912,3.889-6.661c2.027-1.693,4.382-2.656,6.984-3.04c2.927-0.432,5.75-0.068,8.439,1.175
		c2.577,1.191,4.648,2.955,6.007,5.485c0.626,1.166,1.002,2.41,1.11,3.733c0.005,0.062,0.028,0.123,0.043,0.185
		C44.2,22.824,44.2,23.17,44.2,23.515z M26.699,21.109c0.451-0.005,0.887-0.145,1.271-0.439c0.497-0.38,0.703-1.008,0.504-1.548
		c-0.367-0.998-1.807-1.46-2.694-0.865c-0.588,0.394-0.877,1.096-0.69,1.675C25.315,20.634,25.992,21.138,26.699,21.109z
		 M35.271,21.114c0.477-0.01,0.911-0.14,1.285-0.436c0.406-0.321,0.663-0.732,0.587-1.266c-0.102-0.717-0.588-1.11-1.238-1.319
		c-0.722-0.233-1.364-0.107-1.871,0.493c-0.396,0.468-0.525,0.995-0.244,1.558C34.09,20.744,34.574,21.103,35.271,21.114z"/>
</g>
</svg>
