<?xml version="1.0" encoding="utf-8"?>
<!-- Generator: Adobe Illustrator 17.0.0, SVG Export Plug-In . SVG Version: 6.00 Build 0)  -->
<!DOCTYPE svg PUBLIC "-//W3C//DTD SVG 1.1//EN" "http://www.w3.org/Graphics/SVG/1.1/DTD/svg11.dtd">
<svg version="1.1" id="图层_1" xmlns="http://www.w3.org/2000/svg" xmlns:xlink="http://www.w3.org/1999/xlink" x="0px" y="0px"
	 width="138.284px" height="19.024px" viewBox="0 0 138.284 19.024" enable-background="new 0 0 138.284 19.024"
	 xml:space="preserve">
<path fill="#333333" d="M4.221,4.461H0V2.18h4.221V0.22h2.441v1.96h4.581V0.22h2.461v1.96h4.161v2.281h-4.161v1.48h-2.461v-1.48
	H6.661v1.48H4.221V4.461z M14.223,16.043c1.02,0,1.44-0.36,1.54-2.901c0.68,0.4,1.48,0.66,2.22,0.8
	c-0.3,3.661-1.32,4.401-4.001,4.401H6.741c-3.041,0-4.461-1.12-4.481-2.901c0-1.28,0.36-2.5,6.922-6.141H1.92v-2.2h11.783l0.48-0.08
	l1.7,1.28c-0.12,0.1-0.28,0.22-0.5,0.32c-9.962,4.941-10.662,5.901-10.662,6.601c0,0.58,0.7,0.82,1.84,0.82H14.223z M31.323,7.462
	c1.74,2.721,4.561,5.521,7.161,7.142c-0.62,0.5-1.48,1.48-1.92,2.14c-2.2-1.64-4.461-4.201-6.241-6.901v9.062h-2.621v-8.202
	c-1.76,2.581-4.001,4.781-6.461,6.201c-0.42-0.62-1.22-1.6-1.8-2.1c3.061-1.52,5.941-4.361,7.582-7.342H20.22v-2.34h7.482V0.24
	h2.621v4.881h7.302v2.34H31.323z M34.363,4.841c-0.72-0.8-2.201-2.1-3.301-2.981l1.76-1.46c1.06,0.82,2.621,2.02,3.381,2.821
	L34.363,4.841z M46.682,1.8c-0.52,1.68-1.18,3.681-1.74,5.241c1.2,1.56,1.46,2.981,1.46,4.141c0,1.3-0.26,2.16-0.9,2.641
	c-0.3,0.24-0.68,0.36-1.14,0.44c-0.36,0.06-0.82,0.06-1.28,0.04c0-0.58-0.2-1.46-0.52-2.04c0.34,0.02,0.64,0.04,0.86,0.02
	c0.2,0,0.38-0.04,0.54-0.16c0.24-0.18,0.34-0.62,0.34-1.2c0-0.96-0.24-2.24-1.38-3.661c0.4-1.2,0.8-2.821,1.12-4.141h-1.6v15.723
	h-2.08V1h4.421l0.34-0.1L46.682,1.8z M56.063,16.624c0.3,0,0.4-0.34,0.44-2.38c0.44,0.38,1.36,0.72,1.94,0.88
	c-0.18,2.741-0.74,3.501-2.14,3.501h-1.38c-1.76,0-2.16-0.68-2.16-2.661v-4.081h-1.32c-0.3,3.361-1.22,5.681-5.101,7.021
	c-0.22-0.6-0.84-1.46-1.32-1.92c3.181-0.98,3.901-2.601,4.141-5.101h-2.401v-2.12h11.402v2.12h-3.141v4.101
	c0,0.56,0.04,0.64,0.32,0.64H56.063z M48.262,6.501h-1.56V2.561h4.641c-0.22-0.64-0.52-1.32-0.82-1.9l2.26-0.64
	c0.46,0.78,0.92,1.8,1.14,2.541h4.141v3.941h-1.58v1.78h-8.222V6.501z M48.902,4.601v1.62h6.881v-1.62H48.902z M65.681,12.723
	c-0.24-0.68-0.68-1.68-1.12-2.641v8.822h-2.18v-8.082c-0.54,1.86-1.18,3.581-1.9,4.741c-0.22-0.66-0.74-1.76-1.1-2.361
	c1.12-1.58,2.08-4.421,2.601-6.841H60v-2.2h2.381V0.2h2.18v3.941h1.98v2.22h-1.98v0.64c0.52,0.68,2.12,3.341,2.48,3.921
	L65.681,12.723z M76.484,10.442c-0.14-0.26-0.3-0.52-0.5-0.8c-0.52,1.66-1.24,3.141-2.181,4.421c1.3,1.14,2.881,2.02,4.761,2.561
	c-0.54,0.5-1.24,1.48-1.58,2.14c-1.9-0.66-3.481-1.64-4.761-2.881c-1.32,1.26-2.901,2.26-4.801,3.041c-0.3-0.54-1.02-1.46-1.5-1.86
	c1.9-0.72,3.501-1.72,4.781-2.961c-0.9-1.26-1.6-2.661-2.201-4.221c-0.26,0.26-0.54,0.48-0.8,0.7c-0.36-0.44-1.12-1.1-1.64-1.48
	c1.26-0.96,2.561-2.581,3.341-3.901l2.1,0.96c-0.64,1.02-1.46,2.06-2.281,2.981l1.16-0.3c0.44,1.26,1.06,2.421,1.8,3.441
	c0.7-1.02,1.24-2.18,1.58-3.461l2.021,0.54c-0.72-1.02-1.74-2.16-2.661-3.041l1.36-1.14h-7.442v-2.18h4.501
	c-0.28-0.7-0.78-1.56-1.26-2.22l2.1-0.78c0.62,0.74,1.24,1.76,1.52,2.461l-1.26,0.54h5.441v2.18h-3.141
	c1.22,1.14,2.641,2.661,3.281,3.761L76.484,10.442z M98.084,14.283h-7.982v4.621h-2.401v-4.621H79.9v-2.12h7.802v-2.18h2.401v2.18
	h7.982V14.283z M88.542,6.681c-0.04,0.66,0,1.62,0.06,2.12c-5.681,1.16-6.601,1.36-7.182,1.68c-0.16-0.58-0.72-1.56-1.08-1.98
	c0.44-0.3,1.1-0.92,1.1-1.88V0.48h2.44v2.24h4.541v2.1h-4.541v2.721L88.542,6.681z M92.203,9.842c-2.421,0-3.021-0.68-3.021-2.921
	V0.4h2.421v2.981c1.62-0.56,3.241-1.28,4.381-1.88l1.64,1.92c-1.8,0.74-4.021,1.46-6.021,2v1.5c0,0.74,0.12,0.84,0.94,0.84h2.38
	c0.72,0,0.86-0.34,0.96-2.26c0.52,0.36,1.46,0.74,2.12,0.86c-0.26,2.721-0.9,3.481-2.861,3.481H92.203z M117.924,15.603v2.381
	H100.04v-2.381h5.161V0.48h2.461v15.123h2.62V0.48h2.461v11.022c1-1.9,2.2-4.741,2.861-7.021l2.141,1.02
	c-0.88,2.521-2.141,5.341-3.181,7.262l-1.82-0.92v3.761H117.924z M102.681,12.643c-0.44-1.92-1.48-5.121-2.401-7.582l2.18-0.64
	c0.94,2.341,2.1,5.481,2.601,7.382L102.681,12.643z M137.364,14.143c-0.8,0.54-1.72,1.1-2.581,1.54c1,0.56,2.161,0.98,3.501,1.22
	c-0.46,0.48-1.08,1.36-1.38,1.98c-3.481-0.86-5.661-2.781-7.001-5.721h-2.041v3.121l3.361-0.64c-0.12,0.58-0.2,1.48-0.2,1.96
	c-4.401,0.96-5.101,1.12-5.521,1.4v0.02c-0.12-0.56-0.58-1.5-0.86-1.92c0.42-0.28,1.02-0.84,1.02-1.86v-2.08h-1.66v-2h2.921v-1.38
	h-2.5v-1.98h2.5v-1.38h-2.921v0.58c0,3.481-0.32,8.682-2.421,11.963c-0.48-0.38-1.52-1-2.12-1.22c1.98-3.081,2.14-7.562,2.14-10.742
	V1.08h15.383v5.341h-2.701v1.38h2.881v1.98h-2.881v1.38h3.741v2h-2.1L137.364,14.143z M124.001,4.401h10.582v-1.32h-10.582V4.401z
	 M129.102,7.802h2.981v-1.38h-2.981V7.802z M129.102,11.162h2.981v-1.38h-2.981V11.162z M132.143,13.163c0.3,0.5,0.68,0.94,1.1,1.34
	c0.68-0.4,1.42-0.9,2-1.34H132.143z"/>
</svg>
