<?xml version="1.0" encoding="utf-8"?>
<!-- Generator: Adobe Illustrator 17.0.0, SVG Export Plug-In . SVG Version: 6.00 Build 0)  -->
<!DOCTYPE svg PUBLIC "-//W3C//DTD SVG 1.1//EN" "http://www.w3.org/Graphics/SVG/1.1/DTD/svg11.dtd">
<svg version="1.1" id="图层_1" xmlns="http://www.w3.org/2000/svg" xmlns:xlink="http://www.w3.org/1999/xlink" x="0px" y="0px"
	 width="118.73px" height="84.442px" viewBox="0 0 118.73 84.442" enable-background="new 0 0 118.73 84.442" xml:space="preserve">
<g>
	<g>
		<path opacity="0.7" fill="#333333" d="M13.753,10.369c-0.144,0.096-0.312,0.216-0.48,0.312c2.496,0.936,6.601,1.824,9.793,2.208
			c-0.6,0.552-1.344,1.584-1.728,2.256c-3.168-0.6-7.417-1.896-10.201-3.24c-2.904,1.464-6.408,2.616-9.553,3.336
			c-0.336-0.624-0.936-1.56-1.536-2.16c4.008-0.744,8.977-2.232,11.617-4.056L13.753,10.369z M3.552,7.993h-2.52V3.528h9.049V2.712
			H2.64V0.696h17.738v2.016h-7.489v0.816h9.217v4.464h-2.64V5.304h-6.576v3.624h-2.808V5.304H3.552V7.993z M20.186,16.009
			c-1.32,1.344-3.456,2.616-5.425,3.648c0.984,0.336,1.92,0.672,2.64,0.936l-1.128,2.064c-2.328-1.08-6.985-2.544-10.417-3.384
			l1.08-1.728c1.344,0.288,2.952,0.672,4.536,1.104c1.224-0.48,2.592-1.08,3.792-1.752H3.432v-2.016h7.489
			c-0.432-0.48-1.008-1.008-1.488-1.392l1.656-1.224c0.768,0.576,1.752,1.416,2.208,1.992l-0.792,0.624h5.472l0.384-0.144
			L20.186,16.009z M3.816,8.521h5.521v1.608H3.816V8.521z M9.313,6.121v1.536H4.344V6.121H9.313z M18.65,6.121v1.536h-5.017V6.121
			H18.65z M13.633,8.521h5.593v1.608h-5.593V8.521z M40.112,14.617c0.24,0.768,0.72,1.848,1.08,2.352
			c-4.44,3.768-5.232,4.44-5.665,5.016c-0.216-0.696-0.96-1.872-1.44-2.424c0.528-0.384,1.2-1.2,1.2-2.352v-7.201h-2.856V7.273
			h5.616v9.097L40.112,14.617z M37.736,5.809c-0.768-1.056-2.448-2.736-3.72-3.864l1.824-1.752c1.272,1.056,3.048,2.616,3.84,3.648
			L37.736,5.809z M53.457,10.921c-0.864,2.976-2.28,5.256-4.128,6.985c1.608,0.864,3.456,1.488,5.569,1.896
			c-0.624,0.624-1.392,1.752-1.752,2.544c-2.376-0.576-4.44-1.44-6.193-2.64c-1.92,1.176-4.152,1.992-6.576,2.568
			c-0.264-0.744-0.84-1.872-1.296-2.472c2.088-0.384,4.008-0.984,5.664-1.896c-1.32-1.32-2.448-2.856-3.312-4.632l0.984-0.336
			h-1.728v-2.664h10.561l0.48-0.12L53.457,10.921z M45.464,3.36c0,2.376-0.744,5.064-4.152,6.649
			c-0.336-0.552-1.368-1.68-1.896-2.064C42.44,6.649,42.8,4.92,42.8,3.264V0.672h8.593v5.232c0,0.696,0.048,0.984,0.384,0.984h1.248
			c0.384,0,0.984-0.072,1.32-0.168c0.048,0.72,0.096,1.704,0.216,2.352c-0.384,0.168-0.984,0.192-1.488,0.192h-1.536
			c-2.376,0-2.856-1.008-2.856-3.384V3.312h-3.216V3.36z M44.096,12.937c0.696,1.296,1.704,2.472,2.928,3.456
			c1.128-0.96,2.088-2.112,2.808-3.456H44.096z M73.359,14.833c0.168,0.816,0.6,2.04,0.912,2.616
			c-4.824,3.48-5.713,4.176-6.169,4.776c-0.24-0.744-0.936-2.04-1.392-2.664c0.528-0.36,1.296-1.152,1.296-2.232v-7.225h-3.504
			V7.273h6.408v9.241L73.359,14.833z M70.287,5.76c-0.816-1.056-2.568-2.664-3.912-3.792l1.8-1.824
			c1.32,1.032,3.192,2.52,4.032,3.528L70.287,5.76z M86.704,10.393h-5.521v11.929h-3.072V10.393h-5.76V7.417h5.76V0h3.072v7.417
			h5.521V10.393z"/>
	</g>
	<g>
		<path opacity="0.7" fill="#333333" d="M13.753,41.369c-0.144,0.096-0.312,0.216-0.48,0.312c2.496,0.936,6.601,1.824,9.793,2.208
			c-0.6,0.552-1.344,1.584-1.728,2.256c-3.168-0.6-7.417-1.896-10.201-3.24c-2.904,1.464-6.408,2.616-9.553,3.336
			c-0.336-0.624-0.936-1.56-1.536-2.16c4.008-0.744,8.977-2.232,11.617-4.056L13.753,41.369z M3.552,38.993h-2.52v-4.464h9.049
			v-0.816H2.64v-2.016h17.738v2.016h-7.489v0.816h9.217v4.464h-2.64v-2.688h-6.576v3.624h-2.808v-3.624H3.552V38.993z
			 M20.186,47.009c-1.32,1.344-3.456,2.616-5.425,3.648c0.984,0.336,1.92,0.672,2.64,0.936l-1.128,2.064
			c-2.328-1.08-6.985-2.544-10.417-3.384l1.08-1.728c1.344,0.288,2.952,0.672,4.536,1.104c1.224-0.48,2.592-1.08,3.792-1.752H3.432
			v-2.016h7.489c-0.432-0.48-1.008-1.008-1.488-1.392l1.656-1.224c0.768,0.576,1.752,1.416,2.208,1.992l-0.792,0.624h5.472
			l0.384-0.144L20.186,47.009z M3.816,39.521h5.521v1.608H3.816V39.521z M9.313,37.121v1.536H4.344v-1.536H9.313z M18.65,37.121
			v1.536h-5.017v-1.536H18.65z M13.633,39.521h5.593v1.608h-5.593V39.521z M41.12,31.984c-0.624,1.464-1.368,2.952-2.232,4.416
			v16.873h-2.976V40.673c-0.816,1.008-1.632,1.92-2.496,2.688c-0.264-0.672-1.08-2.208-1.584-2.904
			c2.592-2.208,5.113-5.737,6.553-9.361L41.12,31.984z M47.697,40.673c0.672,5.328,1.944,8.881,3.864,9.121
			c0.552,0.048,0.84-1.152,1.032-3.816c0.528,0.624,1.8,1.344,2.328,1.632c-0.6,4.632-1.896,5.737-3.24,5.664
			c-4.056-0.384-5.953-4.896-6.817-12.217l-4.729,0.648l-0.408-2.76l4.848-0.648c-0.168-2.16-0.312-4.512-0.384-7.033h2.904
			c0.048,2.352,0.144,4.608,0.312,6.649l6.841-0.888l0.408,2.688L47.697,40.673z M51.993,36.424c-0.6-1.128-2.04-2.808-3.288-4.032
			l2.136-1.32c1.272,1.152,2.76,2.736,3.456,3.864L51.993,36.424z M64.646,31.96h8.593v2.592h-3.384
			c-0.336,1.632-0.744,3.288-1.296,4.848h4.152v11.017h-4.2v1.752h-2.424v-7.441c-0.312,0.456-0.648,0.912-0.984,1.32
			c-0.096-0.768-0.6-2.592-0.984-3.408c1.488-1.992,2.472-4.92,3.096-8.089h-2.568V31.96z M70.263,41.897h-1.752v6.025h1.752V41.897
			z M82.12,48.522h-8.497v-2.544h8.497V48.522z M86.272,41.249c0,0-0.024,0.792-0.072,1.152c-0.48,6.289-1.008,8.881-1.824,9.769
			c-0.576,0.648-1.152,0.888-1.944,0.984c-0.624,0.072-1.704,0.096-2.88,0.048c-0.048-0.768-0.312-1.848-0.72-2.544
			c0.96,0.096,1.896,0.096,2.352,0.096c0.384,0,0.624-0.048,0.864-0.312c0.504-0.528,0.984-2.4,1.344-6.769h-9.025
			c0.336-2.112,0.696-5.472,0.864-8.041l2.664,0.144c-0.144,1.728-0.336,3.72-0.552,5.472h3.576c0.264-2.16,0.528-4.584,0.696-6.553
			h-7.561v-2.568h7.993l0.456-0.096l2.04,0.168c-0.168,2.688-0.528,6.049-0.888,9.049H86.272z"/>
	</g>
	<g>
		<path opacity="0.7" fill="#333333" d="M0,72.897c0.576-1.608,1.008-4.272,1.176-6.265l2.04,0.264
			c-0.096,2.088-0.528,4.896-1.08,6.745L0,72.897z M7.153,71.385c-0.192-0.864-0.6-2.088-1.08-3.24v16.153H3.24V61.904h2.832v4.512
			l1.296-0.552c0.744,1.44,1.56,3.36,1.872,4.536L7.153,71.385z M16.921,75.273c1.176,2.952,3.144,5.304,6.145,6.432
			c-0.672,0.6-1.584,1.848-2.016,2.688c-3-1.416-4.92-3.84-6.24-7.057c-0.96,2.688-2.784,5.208-6.097,7.105
			c-0.384-0.624-1.392-1.68-2.016-2.208c3.648-1.776,5.185-4.32,5.833-6.961H7.753v-2.712h5.16c0.072-0.768,0.072-1.488,0.072-2.208
			v-2.184H8.857v-2.64h4.128v-3.624h2.88v3.624h5.208v7.033h1.512v2.712H16.921z M15.865,70.377c0,0.72-0.024,1.44-0.072,2.184
			h2.496v-4.392h-2.424V70.377z M38.264,79.426c0.48,0.264,1.008,0.6,1.8,0.96c1.608,0.816,3.792,0.984,6.385,0.984
			c2.424,0,6.048-0.216,8.377-0.528c-0.288,0.744-0.696,2.016-0.744,2.784c-1.608,0.12-5.4,0.264-7.729,0.264
			c-2.88,0-4.968-0.264-6.744-1.176c-1.128-0.528-1.92-1.2-2.52-1.2c-0.84,0-2.064,1.392-3.144,2.76l-1.752-2.448
			c1.104-1.032,2.256-1.872,3.336-2.328v-6.385h-3.024v-2.64h5.76V79.426z M36.392,68.337c-0.72-1.152-2.376-2.88-3.696-4.08
			l2.16-1.56c1.32,1.128,3.024,2.76,3.816,3.888L36.392,68.337z M45.176,66.368h-5.928v-2.376h5.928v-2.04h2.784v2.04h6.265v2.376
			H47.96v1.296h5.473v6.457h-4.489c1.944,1.152,4.056,2.592,5.232,3.672l-1.752,1.944c-0.936-1.008-2.712-2.304-4.464-3.456v4.2
			h-2.784v-4.32c-1.32,1.632-2.976,3.096-4.704,3.96c-0.384-0.672-1.224-1.68-1.8-2.184c1.968-0.768,3.984-2.232,5.257-3.816H39.92
			v-6.457h5.256V66.368z M42.56,71.961h2.616v-2.112H42.56V71.961z M47.96,69.849v2.112h2.688v-2.112H47.96z M71.919,70.281
			c-0.312,3.528-0.936,6.409-1.872,8.713c2.208,1.896,5.184,2.304,8.713,2.328c1.392,0,6.361,0,7.993-0.072
			c-0.408,0.6-0.84,1.848-1.008,2.616h-7.057c-4.032,0-7.321-0.528-9.793-2.568c-0.744,1.248-1.632,2.232-2.64,3
			c-0.408-0.552-1.464-1.536-2.064-1.872c1.152-0.792,2.088-1.848,2.856-3.168c-0.816-1.248-1.536-2.76-2.112-4.656l2.088-0.696
			c0.312,1.08,0.72,2.016,1.176,2.784c0.432-1.224,0.72-2.64,0.936-4.248h-3.84c0.96-1.776,2.184-4.344,3.192-6.745h-3.552v-2.472
			h7.393c-0.912,2.16-2.04,4.68-3.048,6.745h0.576l0.48-0.048L71.919,70.281z M76.959,65.936h-4.08v-2.16h4.08v-1.8h2.688v1.8h5.256
			v3.216h1.32v2.184h-1.32v3.192h-5.256v1.152h5.496v2.064h-5.496v1.176h6.289v2.256h-6.289v1.632h-2.688v-1.632h-5.304v-2.256
			h5.304v-1.176h-4.344v-2.064h4.344v-1.152h-4.2v-2.16h4.2v-1.032h-5.401v-2.184h5.401V65.936z M79.648,65.936v1.056h2.76v-1.056
			H79.648z M82.408,69.177h-2.76v1.032h2.76V69.177z"/>
	</g>
	<g>
		<path opacity="0.7" fill="#333333" d="M105.841,77.409l0.288,2.64c-3.096,0.768-6.409,1.536-8.929,2.112l-0.624-2.832
			c1.344-0.216,3.072-0.576,4.969-0.96c0.552-2.448,1.104-6.241,1.344-8.977l2.616,0.432c-0.456,2.616-1.056,5.736-1.656,8.017
			L105.841,77.409z M101.521,66.104h4.848v2.616h-9.601v-2.616h4.056c-0.264-0.984-0.84-2.352-1.368-3.384l2.424-0.696
			c0.672,1.056,1.296,2.496,1.584,3.432L101.521,66.104z M99.744,69.585c0.504,2.52,0.936,5.713,1.08,7.897l-2.328,0.48
			c-0.072-2.16-0.504-5.473-0.936-7.993L99.744,69.585z M113.161,69.033v4.128h4.752v11.065h-2.928V83.17h-5.688v1.152h-2.784
			V73.161h3.72V61.904h2.928v4.416h5.569v2.712H113.161z M114.986,75.825h-5.688v4.68h5.688V75.825z"/>
	</g>
</g>
</svg>
