<?xml version="1.0" encoding="utf-8"?>
<!-- Generator: Adobe Illustrator 17.0.0, SVG Export Plug-In . SVG Version: 6.00 Build 0)  -->
<!DOCTYPE svg PUBLIC "-//W3C//DTD SVG 1.1//EN" "http://www.w3.org/Graphics/SVG/1.1/DTD/svg11.dtd">
<svg version="1.1" id="图层_1" xmlns="http://www.w3.org/2000/svg" xmlns:xlink="http://www.w3.org/1999/xlink" x="0px" y="0px"
	 width="41.773px" height="33.509px" viewBox="0 0 41.773 33.509" enable-background="new 0 0 41.773 33.509" xml:space="preserve">
<g>
	<path fill="#333333" d="M17.438,33.509c-1.18-0.107-2.388-0.194-3.591-0.33c-1.449-0.165-2.878-0.455-4.282-0.853
		c-2.095-0.593-4.079-1.423-5.803-2.788c-2.1-1.661-3.345-3.814-3.704-6.474c-0.162-1.198,0.04-2.357,0.37-3.5
		c0.604-2.096,1.701-3.929,3.038-5.631c1.543-1.964,3.242-3.778,5.182-5.357c1.554-1.265,3.209-2.373,5.118-3.04
		c1.056-0.369,2.134-0.658,3.269-0.645c1.795,0.02,2.902,0.961,3.237,2.721c0.148,0.774,0.087,1.526-0.107,2.28
		c-0.057,0.223-0.083,0.458-0.087,0.688c-0.005,0.333,0.166,0.525,0.497,0.487c0.414-0.047,0.84-0.113,1.224-0.265
		c1.197-0.472,2.406-0.892,3.681-1.091c1.054-0.165,2.11-0.219,3.14,0.141c1.288,0.45,2.128,1.667,2.09,3.029
		c-0.023,0.828-0.255,1.599-0.687,2.308c-0.216,0.354-0.154,0.67,0.214,0.86c0.228,0.118,0.485,0.188,0.735,0.254
		c1.597,0.426,2.93,1.25,3.88,2.621c0.77,1.111,0.979,2.361,0.763,3.678c-0.363,2.212-1.472,4.024-3.071,5.554
		c-1.704,1.631-3.724,2.753-5.909,3.595c-1.95,0.751-3.964,1.26-6.041,1.493C19.555,33.359,18.512,33.42,17.438,33.509z
		 M17.407,14.863c-1.149-0.008-2.292,0.082-3.423,0.275c-2.259,0.386-4.395,1.112-6.315,2.394c-1.173,0.783-2.183,1.734-2.876,2.979
		c-1.026,1.842-1.113,3.723-0.137,5.614c0.689,1.335,1.764,2.309,3.033,3.075c1.893,1.143,3.972,1.708,6.155,1.908
		c1.544,0.142,3.087,0.099,4.619-0.169c2.391-0.418,4.606-1.27,6.574-2.708c1.319-0.964,2.403-2.137,3.111-3.631
		c1.096-2.313,0.704-4.732-1.083-6.56c-1.075-1.099-2.406-1.78-3.839-2.275C21.342,15.116,19.391,14.873,17.407,14.863z"/>
	<path fill="#333333" d="M41.773,10.274c-0.019,1.42-0.276,2.799-0.671,4.156c-0.067,0.229-0.116,0.465-0.199,0.687
		c-0.156,0.417-0.47,0.646-0.911,0.706c-0.493,0.067-0.974,0.044-1.413-0.215c-0.584-0.345-0.81-0.947-0.646-1.768
		c0.081-0.404,0.205-0.799,0.318-1.196c0.412-1.438,0.27-2.85-0.148-4.263c-0.445-1.504-1.419-2.601-2.653-3.48
		c-1.605-1.144-3.415-1.709-5.392-1.658c-0.425,0.011-0.845,0.183-1.268,0.275c-0.41,0.089-0.815,0.192-1.239,0.043
		c-0.635-0.224-1.08-0.815-1.1-1.499c-0.02-0.687,0.386-1.303,1-1.571c0.652-0.285,1.347-0.33,2.036-0.403
		c1.328-0.142,2.655-0.129,3.959,0.19c2.387,0.585,4.451,1.731,6.065,3.614c1.269,1.482,1.976,3.21,2.179,5.146
		C41.732,9.448,41.745,9.861,41.773,10.274z"/>
	<path fill="#333333" d="M35.485,11.059c-0.036,0.49-0.056,0.961-0.108,1.429c-0.073,0.657-0.649,1.08-1.3,0.977
		c-0.606-0.096-0.987-0.669-0.896-1.301c0.12-0.827,0.12-1.649-0.203-2.441c-0.351-0.861-1.01-1.311-1.915-1.438
		C30.504,8.206,29.95,8.266,29.4,8.374c-0.475,0.093-0.849-0.074-1.111-0.459c-0.27-0.395-0.265-0.82-0.023-1.231
		c0.158-0.269,0.4-0.446,0.709-0.497c1.266-0.207,2.518-0.171,3.725,0.301c1.503,0.588,2.328,1.739,2.625,3.293
		C35.407,10.207,35.435,10.643,35.485,11.059z"/>
	<path fill="#333333" d="M8.885,24.68c0.02-1.61,0.372-3.053,1.313-4.311c0.78-1.043,1.83-1.707,3.057-2.085
		c1.434-0.442,2.895-0.566,4.382-0.285c2.231,0.423,3.942,2.229,4.235,4.482c0.147,1.132,0.06,2.232-0.452,3.267
		c-0.432,0.873-1.117,1.532-1.89,2.098c-1.462,1.07-3.112,1.569-4.917,1.498c-1.566-0.061-3.033-0.497-4.324-1.402
		c-0.83-0.582-1.234-1.441-1.349-2.437C8.905,25.211,8.9,24.913,8.885,24.68z M13.314,22.955c-0.959,0.045-1.75,0.548-2.203,1.536
		c-0.47,1.027-0.018,2.027,1.051,2.386c1.039,0.349,2.385-0.088,3.031-0.986c0.513-0.713,0.525-1.575,0.012-2.196
		C14.75,23.144,14.129,22.965,13.314,22.955z M15.986,22.919c-0.003,0.574,0.419,0.921,0.954,0.784
		c0.471-0.12,0.855-0.629,0.844-1.116c-0.01-0.438-0.342-0.754-0.772-0.735C16.453,21.875,15.989,22.359,15.986,22.919z"/>
</g>
</svg>
