<?xml version="1.0" encoding="utf-8"?>
<!-- Generator: Adobe Illustrator 17.0.0, SVG Export Plug-In . SVG Version: 6.00 Build 0)  -->
<!DOCTYPE svg PUBLIC "-//W3C//DTD SVG 1.1//EN" "http://www.w3.org/Graphics/SVG/1.1/DTD/svg11.dtd">
<svg version="1.1" id="图层_1" xmlns="http://www.w3.org/2000/svg" xmlns:xlink="http://www.w3.org/1999/xlink" x="0px" y="0px"
	 width="54.633px" height="12.797px" viewBox="0 0 54.633 12.797" enable-background="new 0 0 54.633 12.797" xml:space="preserve">
<path fill="#333333" d="M0,2.57V1.148h5.141c0-0.036-0.019-0.109-0.055-0.219C5.012,0.711,4.94,0.42,4.867,0.055L7.055,0
	c0,0.365,0.036,0.748,0.109,1.148h5.195V2.57H0z M0.492,12.687V3.773h2.57C2.989,3.664,2.88,3.519,2.734,3.336
	c-0.183-0.219-0.31-0.364-0.383-0.438h2.133c0.073,0.073,0.182,0.219,0.328,0.438c0.145,0.183,0.255,0.328,0.328,0.438h2.078
	c0.073-0.073,0.164-0.2,0.273-0.383c0.145-0.145,0.309-0.309,0.492-0.492h2.078c-0.255,0.328-0.529,0.62-0.82,0.875h2.68V10.5
	c0,1.276-0.584,1.969-1.75,2.078c-0.474,0.073-1.24,0.109-2.297,0.109c-0.109-0.73-0.219-1.24-0.328-1.531
	c0.291,0.037,0.784,0.055,1.477,0.055c0.766,0,1.148-0.364,1.148-1.094V7.82L9.789,8.312C9.461,8.094,9.133,7.875,8.805,7.656v3.227
	H5.195v0.547H3.555V7.82C3.481,7.894,3.354,7.984,3.172,8.094C2.989,8.24,2.844,8.349,2.734,8.422
	C2.698,8.349,2.588,8.185,2.406,7.93c0.182,0.219,0.127,0.146-0.164-0.219v4.977H0.492z M4.047,5.742
	c0.291-0.219,0.51-0.383,0.656-0.492l0.93,1.039C5.305,6.581,4.958,6.836,4.594,7.055h3.391C7.766,6.945,7.473,6.763,7.109,6.508
	c-0.183-0.109-0.31-0.182-0.383-0.219l0.875-0.984c0.875,0.474,1.731,0.984,2.57,1.531V5.195h-7.93V7
	C2.68,6.709,3.281,6.289,4.047,5.742L4.047,5.742z M5.195,9.461h2.023V8.422H5.195V9.461z M19.523,0
	c-0.219,0.365-0.474,0.748-0.766,1.148h6.781v1.367c-0.802,0.802-1.805,1.495-3.008,2.078c1.276,0.292,2.643,0.456,4.102,0.492
	c-0.255,0.62-0.492,1.203-0.711,1.75c-2.152-0.219-4.047-0.62-5.688-1.203C18.52,6.216,16.588,6.672,14.438,7
	c-0.073-0.145-0.164-0.364-0.273-0.656c-0.183-0.438-0.328-0.766-0.438-0.984c1.604-0.145,3.062-0.383,4.375-0.711
	c-0.62-0.364-1.148-0.784-1.586-1.258c-0.656,0.547-1.203,0.93-1.641,1.148c-0.109-0.145-0.31-0.401-0.602-0.766
	c-0.183-0.219-0.328-0.401-0.438-0.547C15.477,2.279,16.734,1.203,17.609,0H19.523L19.523,0z M18.211,7.547
	c0.109-0.401,0.182-0.82,0.219-1.258h1.859c0,0.146-0.019,0.347-0.055,0.602c-0.037,0.292-0.073,0.511-0.109,0.656h5.469
	c0,0.292-0.037,0.82-0.109,1.586c-0.037,0.547-0.055,0.966-0.055,1.258c-0.109,1.422-1.039,2.133-2.789,2.133
	c-0.766,0.073-1.641,0.073-2.625,0c-0.037-0.511-0.164-1.058-0.383-1.641c0.838,0.073,1.677,0.109,2.516,0.109
	c0.838,0,1.258-0.273,1.258-0.82c0.073-0.291,0.109-0.637,0.109-1.039h-3.773c-0.693,1.75-2.297,2.971-4.812,3.664
	c-0.328-0.474-0.73-0.966-1.203-1.477c1.969-0.401,3.281-1.13,3.938-2.188h-3.5V7.547H18.211L18.211,7.547z M17.883,2.57
	c0.692,0.547,1.495,1.003,2.406,1.367c0.984-0.401,1.859-0.856,2.625-1.367H17.883L17.883,2.57z M27.672,4.484
	c2.734-1.422,4.63-2.916,5.688-4.484h2.461l-0.438,0.602c1.13,1.495,2.88,2.753,5.25,3.773c-0.183,0.255-0.456,0.62-0.82,1.094
	c-0.146,0.183-0.255,0.328-0.328,0.438c-0.584-0.255-1.113-0.547-1.586-0.875v0.711h-7.438V5.031
	c-0.183,0.109-0.474,0.292-0.875,0.547c-0.328,0.183-0.566,0.328-0.711,0.438C28.51,5.469,28.109,4.959,27.672,4.484L27.672,4.484z
	 M31.117,12.797h-1.805V6.836h9.734v5.961h-1.805v-0.602h-6.125V12.797z M37.242,10.609V8.531h-6.125v2.078H37.242z M36.477,4.102
	c-0.802-0.656-1.568-1.385-2.297-2.188c-0.73,0.766-1.55,1.495-2.461,2.188H36.477L36.477,4.102z M41.727,5.906
	c1.02-1.677,1.859-3.609,2.516-5.797l1.75,0.492c-0.292,0.875-0.602,1.714-0.93,2.516v9.625h-1.75V6.617
	c-0.109,0.183-0.292,0.456-0.547,0.82c-0.255,0.402-0.456,0.693-0.602,0.875c0-0.109-0.019-0.255-0.055-0.437
	C42.073,7.511,41.945,6.855,41.727,5.906L41.727,5.906z M53.867,5.359V7h-3.5v1.586h3.828v1.641h-3.828v2.516h-1.859V3.773h-0.383
	c-0.438,1.021-1.039,2.042-1.805,3.062c-0.146-0.291-0.474-0.838-0.984-1.641C46.32,3.664,47.086,1.933,47.633,0l1.695,0.438
	c-0.146,0.547-0.31,1.094-0.492,1.641h5.797v1.695h-4.266v1.586H53.867z"/>
</svg>
