<?xml version="1.0" encoding="utf-8"?>
<!-- Generator: Adobe Illustrator 17.0.0, SVG Export Plug-In . SVG Version: 6.00 Build 0)  -->
<!DOCTYPE svg PUBLIC "-//W3C//DTD SVG 1.1//EN" "http://www.w3.org/Graphics/SVG/1.1/DTD/svg11.dtd">
<svg version="1.1" id="图层_1" xmlns="http://www.w3.org/2000/svg" xmlns:xlink="http://www.w3.org/1999/xlink" x="0px" y="0px"
	 width="54.742px" height="12.906px" viewBox="0 0 54.742 12.906" enable-background="new 0 0 54.742 12.906" xml:space="preserve">
<path fill="#333333" d="M11.484,8.859l0.602,0.82c-0.255,0.109-0.675,0.292-1.258,0.547c-0.292,0.146-0.511,0.255-0.656,0.328
	c0.729,0.292,1.549,0.492,2.461,0.602c-0.109,0.037-0.492,0.547-1.148,1.531c-1.75-0.474-3.136-1.222-4.156-2.242
	c-0.037,0.474-0.037,0.948,0,1.422c-1.677,0.438-2.826,0.766-3.445,0.984l-0.602-1.367c0.219-0.182,0.309-0.62,0.273-1.312V8.859
	H2.516c-0.146,1.568-0.547,2.916-1.203,4.047C0.875,12.25,0.438,11.721,0,11.32c0.583-1.239,0.875-3.445,0.875-6.617V0.547h11.047
	v3.719H9.844V5.25h2.297v1.312H9.844v0.984h2.625v1.313H11.484z M2.68,6.562C2.643,6.891,2.625,7.219,2.625,7.547h1.859V6.562H2.68
	L2.68,6.562z M2.68,3.008h7.492V2.023H2.68V3.008z M2.68,4.266c0,0.146,0,0.474,0,0.984h1.805V4.266H2.68L2.68,4.266z M7.273,10.391
	C6.872,9.917,6.508,9.406,6.18,8.859H5.305v2.078c0.182-0.073,0.51-0.164,0.984-0.273C6.727,10.555,7.055,10.464,7.273,10.391
	L7.273,10.391z M6.125,4.266V5.25h2.023V4.266H6.125z M6.125,6.562v0.984h2.023V6.562H6.125z M7.711,8.859
	c0.328,0.328,0.674,0.638,1.039,0.93C8.895,9.68,9.169,9.516,9.57,9.297c0.364-0.182,0.637-0.328,0.82-0.438H7.711L7.711,8.859z
	 M18.047,10.172c0.656-0.401,1.075-1.276,1.258-2.625h1.859c-0.109,0.438-0.219,0.839-0.328,1.203h0.711v1.422
	c0,0.511,0.255,0.766,0.766,0.766h1.531c0.656,0,1.02-0.219,1.094-0.656c0-0.036,0-0.091,0-0.164
	c0.036-0.401,0.109-0.875,0.219-1.422c0.145,0.037,0.383,0.128,0.711,0.273c0.364,0.146,0.674,0.273,0.93,0.383
	c0,0.037-0.019,0.091-0.055,0.164c-0.109,0.802-0.238,1.404-0.383,1.805c-0.146,0.766-0.766,1.148-1.859,1.148h-2.68
	c-1.312,0-1.969-0.566-1.969-1.695c-0.912,1.13-2.625,1.805-5.141,2.023c-0.146-0.328-0.347-0.73-0.602-1.203
	c-0.109-0.183-0.183-0.291-0.219-0.328C16.005,11.011,17.391,10.646,18.047,10.172L18.047,10.172z M14.547,4.922V0.383h1.531v4.539
	H14.547z M16.953,10.172h-1.805V5.414h9.68v4.484h-1.75V7h-6.125V10.172z M18.922,3.5c0.802-0.875,1.549-2.023,2.242-3.445h1.805
	c-0.037,0.073-0.091,0.201-0.164,0.383c-0.109,0.255-0.201,0.438-0.273,0.547h3.992v1.477h-2.898c0.656,0.62,1.258,1.203,1.805,1.75
	L23.953,5.25c-0.547-0.729-1.13-1.44-1.75-2.133l0.82-0.656h-1.258c-0.547,0.948-1.148,1.732-1.805,2.352
	c-0.365-0.473-0.711-0.875-1.039-1.203v1.367h-1.75V0h1.75V3.5L18.922,3.5z M27.781,4.484c2.734-1.422,4.63-2.916,5.688-4.484h2.461
	l-0.438,0.602c1.13,1.495,2.88,2.753,5.25,3.773c-0.183,0.255-0.456,0.62-0.82,1.094c-0.146,0.183-0.255,0.328-0.328,0.438
	c-0.584-0.255-1.113-0.547-1.586-0.875v0.711H30.57V5.031c-0.183,0.109-0.474,0.292-0.875,0.547
	c-0.328,0.183-0.566,0.328-0.711,0.438C28.62,5.469,28.219,4.959,27.781,4.484L27.781,4.484z M31.227,12.797h-1.805V6.836h9.734
	v5.961h-1.805v-0.602h-6.125V12.797z M37.352,10.609V8.531h-6.125v2.078H37.352z M36.586,4.102
	c-0.802-0.656-1.568-1.385-2.297-2.188c-0.73,0.766-1.55,1.495-2.461,2.188H36.586L36.586,4.102z M41.836,5.906
	c1.02-1.677,1.859-3.609,2.516-5.797l1.75,0.492c-0.292,0.875-0.602,1.714-0.93,2.516v9.625h-1.75V6.617
	c-0.109,0.183-0.292,0.456-0.547,0.82c-0.255,0.402-0.456,0.693-0.602,0.875c0-0.109-0.019-0.255-0.055-0.438
	C42.182,7.511,42.055,6.855,41.836,5.906L41.836,5.906z M53.977,5.359V7h-3.5v1.586h3.828v1.641h-3.828v2.516h-1.859V3.773h-0.383
	c-0.438,1.021-1.039,2.042-1.805,3.062c-0.146-0.291-0.474-0.838-0.984-1.641C46.43,3.664,47.195,1.933,47.742,0l1.695,0.438
	c-0.146,0.547-0.31,1.094-0.492,1.641h5.797v1.695h-4.266v1.586H53.977z"/>
</svg>
