<?xml version="1.0" encoding="utf-8"?>
<!-- Generator: Adobe Illustrator 17.0.0, SVG Export Plug-In . SVG Version: 6.00 Build 0)  -->
<!DOCTYPE svg PUBLIC "-//W3C//DTD SVG 1.1//EN" "http://www.w3.org/Graphics/SVG/1.1/DTD/svg11.dtd">
<svg version="1.1" id="图层_1" xmlns="http://www.w3.org/2000/svg" xmlns:xlink="http://www.w3.org/1999/xlink" x="0px" y="0px"
	 width="54.961px" height="12.852px" viewBox="0 0 54.961 12.852" enable-background="new 0 0 54.961 12.852" xml:space="preserve">
<path fill="#333333" d="M5.359,3.336C5.25,3.847,5.141,4.32,5.031,4.758h6.836v1.586c-0.656,1.349-1.513,2.516-2.57,3.5
	c1.057,0.547,2.297,0.948,3.719,1.203c-0.365,0.401-0.73,0.984-1.094,1.75c-1.531-0.438-2.917-1.003-4.156-1.695
	c-1.277,0.729-2.644,1.312-4.102,1.75c-0.328-0.656-0.675-1.185-1.039-1.586c1.385-0.328,2.588-0.802,3.609-1.422
	c-0.62-0.656-1.203-1.385-1.75-2.188l1.258-1.094c0.547,0.875,1.221,1.641,2.023,2.297C8.604,8.13,9.297,7.31,9.844,6.398h-5.25
	c-0.802,2.516-2.005,4.521-3.609,6.016C0.766,11.903,0.438,11.32,0,10.664c1.641-1.75,2.77-4.192,3.391-7.328H0.383V1.695h3.281
	c0.073-0.51,0.127-1.039,0.164-1.586h1.969C5.76,0.656,5.705,1.185,5.633,1.695h7.164v1.641H5.359L5.359,3.336z M15.695,2.516
	c-0.146,1.349-0.365,2.698-0.656,4.047l-1.094-0.219c0.291-1.422,0.492-2.716,0.602-3.883L15.695,2.516L15.695,2.516z M15.75,12.797
	V0.109h1.641V2.57c0.109,0.037,0.255,0.091,0.438,0.164c0.073,0.037,0.273,0.128,0.602,0.273l-0.438,1.367
	c-0.183-0.109-0.383-0.219-0.602-0.328v8.75H15.75z M17.883,5.633V4.484h3.609V3.937h-2.953V2.789h2.953V2.242h-3.227V1.148h3.227
	V0.109h1.695v1.039h3.5v1.094h-3.5v0.547h3.172v1.148h-3.172v0.547h3.773v1.148H17.883z M20.18,10.719v2.023h-1.641V6.125h7.656
	v4.977c0,1.02-0.511,1.549-1.531,1.586c-0.109,0-0.328,0-0.656,0c-0.62,0.036-1.148,0.055-1.586,0.055
	c-0.109-0.438-0.238-0.894-0.383-1.367c0.838,0.036,1.458,0.055,1.859,0.055c0.438,0,0.656-0.164,0.656-0.492v-0.219H20.18z
	 M24.555,7.984V7.328H20.18v0.656H24.555z M20.18,9.078V9.68h4.375V9.078H20.18z M34.617,10.008c0.401,0.73,1.239,1.076,2.516,1.039
	c0.875,0,2.151-0.018,3.828-0.055c-0.109,0.292-0.238,0.711-0.383,1.258c-0.037,0.109-0.055,0.2-0.055,0.273
	c-1.641,0-2.88,0-3.719,0c-1.459,0-2.443-0.402-2.953-1.203c-0.328,0.438-0.675,0.93-1.039,1.477l-0.875-1.422
	c-1.021,0.583-1.695,1.057-2.023,1.422l-0.875-1.258c0.219-0.219,0.328-0.583,0.328-1.094V8.312h-1.312V6.836h1.312V5.523h-0.383
	c-0.146,0.255-0.31,0.529-0.492,0.82C28.346,5.578,28.182,4.886,28,4.266c0.656-1.239,1.148-2.643,1.477-4.211l1.531,0.328
	C30.898,0.82,30.77,1.24,30.625,1.641h1.695v1.477h-2.187c-0.037,0.109-0.091,0.255-0.164,0.438
	c-0.109,0.219-0.183,0.383-0.219,0.492h2.133v1.477h-0.93v1.312h1.312v1.477h-1.312v1.969c0.145-0.073,0.328-0.2,0.547-0.383
	c0.255-0.145,0.438-0.255,0.547-0.328c0,0.511,0.036,0.966,0.109,1.367c0.291-0.328,0.565-0.656,0.82-0.984V6.344h-0.766V4.648
	h2.406V10.008L34.617,10.008z M32.594,1.367c-0.109-0.364-0.183-0.637-0.219-0.82l1.477-0.438c0.328,0.948,0.637,1.969,0.93,3.062
	l-1.586,0.438C33.086,3.099,32.885,2.352,32.594,1.367L32.594,1.367z M35.055,9.406V7.93h2.352V6.727h-2.297V5.359
	c0.109-0.364,0.309-1.02,0.602-1.969c0.036-0.219,0.073-0.383,0.109-0.492H35V1.367h1.203c0.036-0.109,0.073-0.255,0.109-0.438
	c0.145-0.401,0.237-0.692,0.273-0.875l1.531,0.164c-0.109,0.438-0.219,0.82-0.328,1.148h2.898v1.531h-3.336
	c-0.219,0.802-0.456,1.586-0.711,2.352h0.766V3.5h1.477v1.75h1.695v1.477h-1.695V7.93h1.914v1.477h-1.914v1.422h-1.477V9.406H35.055
	z M54.578,1.258v1.477h-2.023c0.073,0.037,0.2,0.091,0.383,0.164c0.364,0.109,0.656,0.201,0.875,0.273
	C53.703,3.281,53.539,3.5,53.32,3.828c-0.146,0.183-0.255,0.328-0.328,0.438h1.969v1.477h-5.906l1.422,0.438
	c-0.037,0.037-0.091,0.128-0.164,0.273c-0.109,0.146-0.183,0.255-0.219,0.328h4.758v1.477h-1.312
	c-0.292,0.766-0.711,1.459-1.258,2.078c0.219,0.073,0.565,0.219,1.039,0.438c0.656,0.255,1.148,0.456,1.477,0.602l-0.875,1.422
	c-0.402-0.183-0.966-0.456-1.695-0.82c-0.584-0.292-1.021-0.492-1.312-0.602c-1.13,0.692-2.607,1.184-4.43,1.477
	c-0.219-0.511-0.492-1.003-0.82-1.477c1.348-0.109,2.479-0.364,3.391-0.766c-0.875-0.401-1.659-0.711-2.352-0.93
	c0.109-0.182,0.255-0.419,0.438-0.711c0.182-0.328,0.309-0.565,0.383-0.711h-1.367V7.766c-0.292,0.037-0.602,0.091-0.93,0.164v3.227
	c0,0.911-0.42,1.422-1.258,1.531c-0.511,0.036-1.021,0.055-1.531,0.055c0-0.037-0.019-0.109-0.055-0.219
	c-0.109-0.656-0.219-1.113-0.328-1.367c0.401,0,0.766,0,1.094,0c0.255,0,0.383-0.2,0.383-0.602V8.258
	c-0.255,0.037-0.602,0.109-1.039,0.219c-0.109,0.037-0.183,0.055-0.219,0.055l-0.219-1.859c0.073,0,0.182-0.018,0.328-0.055
	c0.182,0,0.565-0.055,1.148-0.164V4.211h-1.258V2.516h1.258V0.109h1.695v2.406h1.094v1.695h-1.094V6.18
	c0.145,0,0.346-0.036,0.602-0.109c0.182-0.036,0.328-0.055,0.438-0.055c-0.037,0.292-0.055,0.547-0.055,0.766h2.023
	c0.036-0.073,0.091-0.219,0.164-0.438c0.109-0.255,0.182-0.455,0.219-0.602h-2.461V4.266h1.859c-0.109-0.219-0.273-0.492-0.492-0.82
	c-0.073-0.109-0.128-0.2-0.164-0.273l1.094-0.438h-1.805V1.258h2.844c-0.037-0.109-0.091-0.273-0.164-0.492
	c-0.073-0.182-0.128-0.328-0.164-0.438L51.078,0c0.073,0.183,0.182,0.474,0.328,0.875c0.036,0.183,0.073,0.31,0.109,0.383H54.578z
	 M49.328,8.258C49.145,8.55,49,8.805,48.891,9.023c0.182,0.073,0.473,0.183,0.875,0.328c0.364,0.146,0.637,0.255,0.82,0.328
	c0.473-0.438,0.82-0.911,1.039-1.422H49.328L49.328,8.258z M49.547,3.227c0.219,0.292,0.383,0.529,0.492,0.711l-0.82,0.328h1.75
	c0.438-0.656,0.766-1.166,0.984-1.531h-2.734C49.291,2.844,49.401,3.008,49.547,3.227L49.547,3.227z"/>
</svg>
